<svg width="1659" height="1039" viewBox="0 0 1659 1039" fill="none" xmlns="http://www.w3.org/2000/svg">
<path d="M395.8 675.666V428.566H450.75V675.666H395.8ZM605.789 675.666V578.716C605.789 569.849 602.989 562.733 597.389 557.366C592.022 551.766 585.139 548.966 576.739 548.966C570.906 548.966 565.772 550.249 561.339 552.816C556.906 555.149 553.406 558.649 550.839 563.316C548.272 567.749 546.989 572.883 546.989 578.716L526.339 568.566C526.339 555.266 529.256 543.599 535.089 533.566C540.922 523.533 548.972 515.833 559.239 510.466C569.739 504.866 581.522 502.066 594.589 502.066C607.189 502.066 618.272 505.099 627.839 511.166C637.639 516.999 645.339 524.816 650.939 534.616C656.539 544.416 659.339 555.149 659.339 566.816V675.666H605.789ZM493.439 675.666V505.566H546.989V675.666H493.439ZM806.082 675.666V578.716C806.082 569.849 803.282 562.733 797.682 557.366C792.315 551.766 785.432 548.966 777.032 548.966C771.199 548.966 766.065 550.249 761.632 552.816C757.199 555.149 753.699 558.649 751.132 563.316C748.565 567.749 747.282 572.883 747.282 578.716L726.632 568.566C726.632 555.266 729.549 543.599 735.382 533.566C741.215 523.533 749.265 515.833 759.532 510.466C770.032 504.866 781.815 502.066 794.882 502.066C807.482 502.066 818.565 505.099 828.132 511.166C837.932 516.999 845.632 524.816 851.232 534.616C856.832 544.416 859.632 555.149 859.632 566.816V675.666H806.082ZM693.732 675.666V505.566H747.282V675.666H693.732ZM975.925 679.516C958.425 679.516 942.558 675.666 928.325 667.966C914.325 660.033 903.242 649.299 895.075 635.766C886.908 622.233 882.825 607.066 882.825 590.266C882.825 573.466 886.908 558.416 895.075 545.116C903.242 531.816 914.325 521.316 928.325 513.616C942.325 505.683 958.192 501.716 975.925 501.716C993.658 501.716 1009.53 505.566 1023.53 513.266C1037.53 520.966 1048.61 531.583 1056.78 545.116C1064.94 558.416 1069.03 573.466 1069.03 590.266C1069.03 607.066 1064.94 622.233 1056.78 635.766C1048.61 649.299 1037.53 660.033 1023.53 667.966C1009.53 675.666 993.658 679.516 975.925 679.516ZM975.925 630.866C983.625 630.866 990.392 629.233 996.225 625.966C1002.06 622.466 1006.49 617.683 1009.53 611.616C1012.79 605.316 1014.43 598.199 1014.43 590.266C1014.43 582.333 1012.79 575.449 1009.53 569.616C1006.26 563.549 1001.71 558.883 995.875 555.616C990.275 552.116 983.625 550.366 975.925 550.366C968.458 550.366 961.808 552.116 955.975 555.616C950.142 558.883 945.592 563.549 942.325 569.616C939.058 575.683 937.425 582.683 937.425 590.616C937.425 598.316 939.058 605.316 942.325 611.616C945.592 617.683 950.142 622.466 955.975 625.966C961.808 629.233 968.458 630.866 975.925 630.866ZM1144.45 675.666L1072.35 505.566H1130.1L1179.1 647.316H1153.9L1202.9 505.566H1259.6L1187.5 675.316L1144.45 675.666ZM1345.15 679.166C1329.52 679.166 1315.52 675.316 1303.15 667.616C1291.02 659.916 1281.34 649.416 1274.1 636.116C1267.1 622.816 1263.6 607.649 1263.6 590.616C1263.6 573.583 1267.1 558.416 1274.1 545.116C1281.34 531.816 1291.02 521.316 1303.15 513.616C1315.52 505.916 1329.52 502.066 1345.15 502.066C1356.59 502.066 1366.85 504.283 1375.95 508.716C1385.29 513.149 1392.87 519.333 1398.7 527.266C1404.54 534.966 1407.8 543.833 1408.5 553.866V627.366C1407.8 637.399 1404.54 646.383 1398.7 654.316C1393.1 662.016 1385.64 668.083 1376.3 672.516C1366.97 676.949 1356.59 679.166 1345.15 679.166ZM1356 630.866C1367.44 630.866 1376.65 627.133 1383.65 619.666C1390.65 611.966 1394.15 602.283 1394.15 590.616C1394.15 582.683 1392.52 575.683 1389.25 569.616C1386.22 563.549 1381.79 558.883 1375.95 555.616C1370.35 552.116 1363.82 550.366 1356.35 550.366C1348.89 550.366 1342.24 552.116 1336.4 555.616C1330.8 558.883 1326.25 563.549 1322.75 569.616C1319.49 575.683 1317.85 582.683 1317.85 590.616C1317.85 598.316 1319.49 605.199 1322.75 611.266C1326.02 617.333 1330.57 622.116 1336.4 625.616C1342.24 629.116 1348.77 630.866 1356 630.866ZM1392.05 675.666V629.816L1400.1 588.516L1392.05 547.216V505.566H1444.55V675.666H1392.05Z" fill="#FF8C33"/>
<rect width="1659" height="1039" fill="#060C21"/>
<path d="M450.192 607.506C447.524 607.506 445.163 606.939 443.108 605.804C441.084 604.669 439.489 603.105 438.324 601.112C437.189 599.088 436.622 596.788 436.622 594.212V574.524H443.89V594.626C443.89 595.914 444.166 597.033 444.718 597.984C445.27 598.935 446.021 599.671 446.972 600.192C447.953 600.683 449.027 600.928 450.192 600.928C451.419 600.928 452.492 600.683 453.412 600.192C454.332 599.671 455.053 598.95 455.574 598.03C456.126 597.079 456.402 595.96 456.402 594.672V574.524H463.67V594.258C463.67 596.834 463.103 599.119 461.968 601.112C460.833 603.105 459.254 604.669 457.23 605.804C455.206 606.939 452.86 607.506 450.192 607.506ZM483.549 607V594.258C483.549 593.093 483.181 592.157 482.445 591.452C481.739 590.716 480.835 590.348 479.731 590.348C478.964 590.348 478.289 590.517 477.707 590.854C477.124 591.161 476.664 591.621 476.327 592.234C475.989 592.817 475.821 593.491 475.821 594.258L473.107 592.924C473.107 591.176 473.49 589.643 474.257 588.324C475.023 587.005 476.081 585.993 477.431 585.288C478.811 584.552 480.359 584.184 482.077 584.184C483.733 584.184 485.189 584.583 486.447 585.38C487.735 586.147 488.747 587.174 489.483 588.462C490.219 589.75 490.587 591.161 490.587 592.694V607H483.549ZM468.783 607V584.644H475.821V607H468.783ZM512.009 607.552C510.69 607.552 509.387 607.383 508.099 607.046C506.841 606.709 505.661 606.233 504.557 605.62C503.483 604.976 502.563 604.24 501.797 603.412L505.799 599.364C506.535 600.161 507.409 600.79 508.421 601.25C509.433 601.679 510.537 601.894 511.733 601.894C512.561 601.894 513.189 601.771 513.619 601.526C514.079 601.281 514.309 600.943 514.309 600.514C514.309 599.962 514.033 599.548 513.481 599.272C512.959 598.965 512.285 598.705 511.457 598.49C510.629 598.245 509.755 597.984 508.835 597.708C507.915 597.432 507.041 597.049 506.213 596.558C505.385 596.067 504.71 595.393 504.189 594.534C503.667 593.645 503.407 592.525 503.407 591.176C503.407 589.735 503.775 588.493 504.511 587.45C505.247 586.377 506.289 585.533 507.639 584.92C508.988 584.307 510.567 584 512.377 584C514.278 584 516.026 584.337 517.621 585.012C519.246 585.656 520.565 586.622 521.577 587.91L517.575 591.958C516.869 591.13 516.072 590.547 515.183 590.21C514.324 589.873 513.481 589.704 512.653 589.704C511.855 589.704 511.257 589.827 510.859 590.072C510.46 590.287 510.261 590.609 510.261 591.038C510.261 591.498 510.521 591.866 511.043 592.142C511.564 592.418 512.239 592.663 513.067 592.878C513.895 593.093 514.769 593.353 515.689 593.66C516.609 593.967 517.483 594.381 518.311 594.902C519.139 595.423 519.813 596.129 520.335 597.018C520.856 597.877 521.117 599.011 521.117 600.422C521.117 602.599 520.289 604.332 518.633 605.62C517.007 606.908 514.799 607.552 512.009 607.552ZM524.935 607V584.644H531.973V607H524.935ZM528.477 581.562C527.373 581.562 526.453 581.194 525.717 580.458C525.012 579.691 524.659 578.771 524.659 577.698C524.659 576.594 525.012 575.674 525.717 574.938C526.453 574.202 527.373 573.834 528.477 573.834C529.581 573.834 530.486 574.202 531.191 574.938C531.897 575.674 532.249 576.594 532.249 577.698C532.249 578.771 531.897 579.691 531.191 580.458C530.486 581.194 529.581 581.562 528.477 581.562ZM545.071 607.552C543.753 607.552 542.449 607.383 541.161 607.046C539.904 606.709 538.723 606.233 537.619 605.62C536.546 604.976 535.626 604.24 534.859 603.412L538.861 599.364C539.597 600.161 540.471 600.79 541.483 601.25C542.495 601.679 543.599 601.894 544.795 601.894C545.623 601.894 546.252 601.771 546.681 601.526C547.141 601.281 547.371 600.943 547.371 600.514C547.371 599.962 547.095 599.548 546.543 599.272C546.022 598.965 545.347 598.705 544.519 598.49C543.691 598.245 542.817 597.984 541.897 597.708C540.977 597.432 540.103 597.049 539.275 596.558C538.447 596.067 537.773 595.393 537.251 594.534C536.73 593.645 536.469 592.525 536.469 591.176C536.469 589.735 536.837 588.493 537.573 587.45C538.309 586.377 539.352 585.533 540.701 584.92C542.051 584.307 543.63 584 545.439 584C547.341 584 549.089 584.337 550.683 585.012C552.309 585.656 553.627 586.622 554.639 587.91L550.637 591.958C549.932 591.13 549.135 590.547 548.245 590.21C547.387 589.873 546.543 589.704 545.715 589.704C544.918 589.704 544.32 589.827 543.921 590.072C543.523 590.287 543.323 590.609 543.323 591.038C543.323 591.498 543.584 591.866 544.105 592.142C544.627 592.418 545.301 592.663 546.129 592.878C546.957 593.093 547.831 593.353 548.751 593.66C549.671 593.967 550.545 594.381 551.373 594.902C552.201 595.423 552.876 596.129 553.397 597.018C553.919 597.877 554.179 599.011 554.179 600.422C554.179 602.599 553.351 604.332 551.695 605.62C550.07 606.908 547.862 607.552 545.071 607.552ZM561.172 607V575.398H568.21V607H561.172ZM556.112 590.624V584.644H573.27V590.624H556.112ZM586.961 607.506C584.539 607.506 582.377 607.015 580.476 606.034C578.605 605.022 577.133 603.627 576.06 601.848C574.986 600.069 574.45 598.061 574.45 595.822C574.45 593.583 574.971 591.59 576.014 589.842C577.087 588.063 578.528 586.668 580.338 585.656C582.147 584.644 584.186 584.138 586.456 584.138C588.664 584.138 590.611 584.613 592.298 585.564C593.984 586.515 595.303 587.833 596.254 589.52C597.235 591.207 597.725 593.139 597.725 595.316C597.725 595.715 597.695 596.144 597.634 596.604C597.603 597.033 597.526 597.539 597.404 598.122L578.13 598.168V593.338L594.414 593.292L591.378 595.316C591.347 594.028 591.148 592.97 590.78 592.142C590.412 591.283 589.86 590.639 589.124 590.21C588.418 589.75 587.544 589.52 586.502 589.52C585.398 589.52 584.432 589.781 583.604 590.302C582.806 590.793 582.178 591.498 581.718 592.418C581.288 593.338 581.074 594.457 581.074 595.776C581.074 597.095 581.304 598.229 581.764 599.18C582.254 600.1 582.929 600.821 583.788 601.342C584.677 601.833 585.72 602.078 586.916 602.078C588.02 602.078 589.016 601.894 589.906 601.526C590.795 601.127 591.577 600.545 592.252 599.778L596.116 603.642C595.012 604.93 593.678 605.896 592.114 606.54C590.55 607.184 588.832 607.506 586.961 607.506ZM601.123 607V584.644H608.161V607H601.123ZM615.429 607V593.936C615.429 592.801 615.076 591.927 614.371 591.314C613.696 590.67 612.853 590.348 611.841 590.348C611.135 590.348 610.507 590.501 609.955 590.808C609.403 591.084 608.958 591.483 608.621 592.004C608.314 592.525 608.161 593.169 608.161 593.936L605.447 592.74C605.447 590.961 605.83 589.443 606.597 588.186C607.363 586.898 608.406 585.917 609.725 585.242C611.043 584.537 612.531 584.184 614.187 584.184C615.751 584.184 617.146 584.537 618.373 585.242C619.63 585.947 620.627 586.929 621.363 588.186C622.099 589.443 622.467 590.946 622.467 592.694V607H615.429ZM629.735 607V593.936C629.735 592.801 629.382 591.927 628.677 591.314C628.002 590.67 627.159 590.348 626.147 590.348C625.441 590.348 624.813 590.501 624.261 590.808C623.709 591.084 623.264 591.483 622.927 592.004C622.62 592.525 622.467 593.169 622.467 593.936L618.419 593.384C618.48 591.483 618.925 589.857 619.753 588.508C620.611 587.128 621.731 586.07 623.111 585.334C624.521 584.567 626.101 584.184 627.849 584.184C629.566 584.184 631.084 584.552 632.403 585.288C633.752 585.993 634.81 587.021 635.577 588.37C636.374 589.689 636.773 591.283 636.773 593.154V607H629.735ZM650.621 607.46C648.566 607.46 646.726 606.954 645.101 605.942C643.506 604.93 642.233 603.55 641.283 601.802C640.363 600.054 639.903 598.061 639.903 595.822C639.903 593.583 640.363 591.59 641.283 589.842C642.233 588.094 643.506 586.714 645.101 585.702C646.726 584.69 648.566 584.184 650.621 584.184C652.123 584.184 653.473 584.475 654.669 585.058C655.895 585.641 656.892 586.453 657.659 587.496C658.425 588.508 658.855 589.673 658.947 590.992V600.652C658.855 601.971 658.425 603.151 657.659 604.194C656.923 605.206 655.941 606.003 654.715 606.586C653.488 607.169 652.123 607.46 650.621 607.46ZM652.047 601.112C653.549 601.112 654.761 600.621 655.681 599.64C656.601 598.628 657.061 597.355 657.061 595.822C657.061 594.779 656.846 593.859 656.417 593.062C656.018 592.265 655.435 591.651 654.669 591.222C653.933 590.762 653.074 590.532 652.093 590.532C651.111 590.532 650.237 590.762 649.471 591.222C648.735 591.651 648.137 592.265 647.677 593.062C647.247 593.859 647.033 594.779 647.033 595.822C647.033 596.834 647.247 597.739 647.677 598.536C648.106 599.333 648.704 599.962 649.471 600.422C650.237 600.882 651.096 601.112 652.047 601.112ZM656.785 607V600.974L657.843 595.546L656.785 590.118V584.644H663.685V607H656.785ZM668.64 612.52L671.998 606.264L674.068 605.666C673.854 606.126 673.593 606.509 673.286 606.816C672.98 607.092 672.627 607.23 672.228 607.23C671.339 607.23 670.526 606.862 669.79 606.126C669.054 605.39 668.686 604.47 668.686 603.366C668.686 602.17 669.085 601.143 669.882 600.284C670.71 599.425 671.722 598.996 672.918 598.996C674.053 598.996 675.034 599.425 675.862 600.284C676.721 601.112 677.15 602.139 677.15 603.366C677.15 603.857 677.058 604.424 676.874 605.068C676.69 605.712 676.322 606.555 675.77 607.598L672.044 614.406L668.64 612.52ZM700.363 607.506C698.309 607.506 696.484 607.092 694.889 606.264C693.325 605.405 692.099 604.24 691.209 602.768C690.32 601.265 689.875 599.548 689.875 597.616V584.644H696.913V597.524C696.913 598.291 697.036 598.95 697.281 599.502C697.557 600.054 697.956 600.483 698.477 600.79C698.999 601.097 699.627 601.25 700.363 601.25C701.406 601.25 702.234 600.928 702.847 600.284C703.461 599.609 703.767 598.689 703.767 597.524V584.644H710.805V597.57C710.805 599.533 710.361 601.265 709.471 602.768C708.582 604.24 707.355 605.405 705.791 606.264C704.227 607.092 702.418 607.506 700.363 607.506ZM729.99 607V594.258C729.99 593.093 729.622 592.157 728.886 591.452C728.181 590.716 727.276 590.348 726.172 590.348C725.406 590.348 724.731 590.517 724.148 590.854C723.566 591.161 723.106 591.621 722.768 592.234C722.431 592.817 722.262 593.491 722.262 594.258L719.548 592.924C719.548 591.176 719.932 589.643 720.698 588.324C721.465 587.005 722.523 585.993 723.872 585.288C725.252 584.552 726.801 584.184 728.518 584.184C730.174 584.184 731.631 584.583 732.888 585.38C734.176 586.147 735.188 587.174 735.924 588.462C736.66 589.75 737.028 591.161 737.028 592.694V607H729.99ZM715.224 607V584.644H722.262V607H715.224ZM750.886 607.46C748.832 607.46 746.992 606.954 745.366 605.942C743.772 604.93 742.499 603.55 741.548 601.802C740.628 600.054 740.168 598.061 740.168 595.822C740.168 593.583 740.628 591.59 741.548 589.842C742.499 588.094 743.772 586.714 745.366 585.702C746.992 584.69 748.832 584.184 750.886 584.184C752.389 584.184 753.738 584.475 754.934 585.058C756.161 585.641 757.158 586.453 757.924 587.496C758.691 588.508 759.12 589.673 759.212 590.992V600.652C759.12 601.971 758.691 603.151 757.924 604.194C757.188 605.206 756.207 606.003 754.98 606.586C753.754 607.169 752.389 607.46 750.886 607.46ZM752.312 601.112C753.815 601.112 755.026 600.621 755.946 599.64C756.866 598.628 757.326 597.355 757.326 595.822C757.326 594.779 757.112 593.859 756.682 593.062C756.284 592.265 755.701 591.651 754.934 591.222C754.198 590.762 753.34 590.532 752.358 590.532C751.377 590.532 750.503 590.762 749.736 591.222C749 591.651 748.402 592.265 747.942 593.062C747.513 593.859 747.298 594.779 747.298 595.822C747.298 596.834 747.513 597.739 747.942 598.536C748.372 599.333 748.97 599.962 749.736 600.422C750.503 600.882 751.362 601.112 752.312 601.112ZM757.05 607V600.974L758.108 595.546L757.05 590.118V584.644H763.95V607H757.05ZM784.704 607L775.228 584.644H782.818L789.258 603.274H785.946L792.386 584.644H799.838L790.362 606.954L784.704 607ZM802.373 607V584.644H809.411V607H802.373ZM805.915 581.562C804.811 581.562 803.891 581.194 803.155 580.458C802.449 579.691 802.097 578.771 802.097 577.698C802.097 576.594 802.449 575.674 803.155 574.938C803.891 574.202 804.811 573.834 805.915 573.834C807.019 573.834 807.923 574.202 808.629 574.938C809.334 575.674 809.687 576.594 809.687 577.698C809.687 578.771 809.334 579.691 808.629 580.458C807.923 581.194 807.019 581.562 805.915 581.562ZM822.509 607.552C821.19 607.552 819.887 607.383 818.599 607.046C817.341 606.709 816.161 606.233 815.057 605.62C813.983 604.976 813.063 604.24 812.297 603.412L816.299 599.364C817.035 600.161 817.909 600.79 818.921 601.25C819.933 601.679 821.037 601.894 822.233 601.894C823.061 601.894 823.689 601.771 824.119 601.526C824.579 601.281 824.809 600.943 824.809 600.514C824.809 599.962 824.533 599.548 823.981 599.272C823.459 598.965 822.785 598.705 821.957 598.49C821.129 598.245 820.255 597.984 819.335 597.708C818.415 597.432 817.541 597.049 816.713 596.558C815.885 596.067 815.21 595.393 814.689 594.534C814.167 593.645 813.907 592.525 813.907 591.176C813.907 589.735 814.275 588.493 815.011 587.45C815.747 586.377 816.789 585.533 818.139 584.92C819.488 584.307 821.067 584 822.877 584C824.778 584 826.526 584.337 828.121 585.012C829.746 585.656 831.065 586.622 832.077 587.91L828.075 591.958C827.369 591.13 826.572 590.547 825.683 590.21C824.824 589.873 823.981 589.704 823.153 589.704C822.355 589.704 821.757 589.827 821.359 590.072C820.96 590.287 820.761 590.609 820.761 591.038C820.761 591.498 821.021 591.866 821.543 592.142C822.064 592.418 822.739 592.663 823.567 592.878C824.395 593.093 825.269 593.353 826.189 593.66C827.109 593.967 827.983 594.381 828.811 594.902C829.639 595.423 830.313 596.129 830.835 597.018C831.356 597.877 831.617 599.011 831.617 600.422C831.617 602.599 830.789 604.332 829.133 605.62C827.507 606.908 825.299 607.552 822.509 607.552ZM835.435 607V584.644H842.473V607H835.435ZM838.977 581.562C837.873 581.562 836.953 581.194 836.217 580.458C835.512 579.691 835.159 578.771 835.159 577.698C835.159 576.594 835.512 575.674 836.217 574.938C836.953 574.202 837.873 573.834 838.977 573.834C840.081 573.834 840.986 574.202 841.691 574.938C842.397 575.674 842.749 576.594 842.749 577.698C842.749 578.771 842.397 579.691 841.691 580.458C840.986 581.194 840.081 581.562 838.977 581.562ZM858.193 607.506C855.893 607.506 853.808 607 851.937 605.988C850.097 604.945 848.641 603.535 847.567 601.756C846.494 599.977 845.957 597.984 845.957 595.776C845.957 593.568 846.494 591.59 847.567 589.842C848.641 588.094 850.097 586.714 851.937 585.702C853.777 584.659 855.863 584.138 858.193 584.138C860.524 584.138 862.609 584.644 864.449 585.656C866.289 586.668 867.746 588.063 868.819 589.842C869.893 591.59 870.429 593.568 870.429 595.776C870.429 597.984 869.893 599.977 868.819 601.756C867.746 603.535 866.289 604.945 864.449 605.988C862.609 607 860.524 607.506 858.193 607.506ZM858.193 601.112C859.205 601.112 860.095 600.897 860.861 600.468C861.628 600.008 862.211 599.379 862.609 598.582C863.039 597.754 863.253 596.819 863.253 595.776C863.253 594.733 863.039 593.829 862.609 593.062C862.18 592.265 861.582 591.651 860.815 591.222C860.079 590.762 859.205 590.532 858.193 590.532C857.212 590.532 856.338 590.762 855.571 591.222C854.805 591.651 854.207 592.265 853.777 593.062C853.348 593.859 853.133 594.779 853.133 595.822C853.133 596.834 853.348 597.754 853.777 598.582C854.207 599.379 854.805 600.008 855.571 600.468C856.338 600.897 857.212 601.112 858.193 601.112ZM854.881 582.114L852.581 578.756L859.895 571.902L863.759 577.33L854.881 582.114ZM888.699 607V594.258C888.699 593.093 888.331 592.157 887.595 591.452C886.89 590.716 885.985 590.348 884.881 590.348C884.115 590.348 883.44 590.517 882.857 590.854C882.275 591.161 881.815 591.621 881.477 592.234C881.14 592.817 880.971 593.491 880.971 594.258L878.257 592.924C878.257 591.176 878.641 589.643 879.407 588.324C880.174 587.005 881.232 585.993 882.581 585.288C883.961 584.552 885.51 584.184 887.227 584.184C888.883 584.184 890.34 584.583 891.597 585.38C892.885 586.147 893.897 587.174 894.633 588.462C895.369 589.75 895.737 591.161 895.737 592.694V607H888.699ZM873.933 607V584.644H880.971V607H873.933ZM900.257 612.52L903.615 606.264L905.685 605.666C905.471 606.126 905.21 606.509 904.903 606.816C904.597 607.092 904.244 607.23 903.845 607.23C902.956 607.23 902.143 606.862 901.407 606.126C900.671 605.39 900.303 604.47 900.303 603.366C900.303 602.17 900.702 601.143 901.499 600.284C902.327 599.425 903.339 598.996 904.535 598.996C905.67 598.996 906.651 599.425 907.479 600.284C908.338 601.112 908.767 602.139 908.767 603.366C908.767 603.857 908.675 604.424 908.491 605.068C908.307 605.712 907.939 606.555 907.387 607.598L903.661 614.406L900.257 612.52ZM931.981 607.506C929.926 607.506 928.101 607.092 926.507 606.264C924.943 605.405 923.716 604.24 922.827 602.768C921.937 601.265 921.493 599.548 921.493 597.616V584.644H928.531V597.524C928.531 598.291 928.653 598.95 928.899 599.502C929.175 600.054 929.573 600.483 930.095 600.79C930.616 601.097 931.245 601.25 931.981 601.25C933.023 601.25 933.851 600.928 934.465 600.284C935.078 599.609 935.385 598.689 935.385 597.524V584.644H942.423V597.57C942.423 599.533 941.978 601.265 941.089 602.768C940.199 604.24 938.973 605.405 937.409 606.264C935.845 607.092 934.035 607.506 931.981 607.506ZM961.607 607V594.258C961.607 593.093 961.239 592.157 960.503 591.452C959.798 590.716 958.893 590.348 957.789 590.348C957.023 590.348 956.348 590.517 955.765 590.854C955.183 591.161 954.723 591.621 954.385 592.234C954.048 592.817 953.879 593.491 953.879 594.258L951.165 592.924C951.165 591.176 951.549 589.643 952.315 588.324C953.082 587.005 954.14 585.993 955.489 585.288C956.869 584.552 958.418 584.184 960.135 584.184C961.791 584.184 963.248 584.583 964.505 585.38C965.793 586.147 966.805 587.174 967.541 588.462C968.277 589.75 968.645 591.161 968.645 592.694V607H961.607ZM946.841 607V584.644H953.879V607H946.841ZM982.504 607.46C980.449 607.46 978.609 606.954 976.984 605.942C975.389 604.93 974.116 603.55 973.166 601.802C972.246 600.054 971.786 598.061 971.786 595.822C971.786 593.583 972.246 591.59 973.166 589.842C974.116 588.094 975.389 586.714 976.984 585.702C978.609 584.69 980.449 584.184 982.504 584.184C984.006 584.184 985.356 584.475 986.552 585.058C987.778 585.641 988.775 586.453 989.542 587.496C990.308 588.508 990.738 589.673 990.83 590.992V600.652C990.738 601.971 990.308 603.151 989.542 604.194C988.806 605.206 987.824 606.003 986.598 606.586C985.371 607.169 984.006 607.46 982.504 607.46ZM983.93 601.112C985.432 601.112 986.644 600.621 987.564 599.64C988.484 598.628 988.944 597.355 988.944 595.822C988.944 594.779 988.729 593.859 988.3 593.062C987.901 592.265 987.318 591.651 986.552 591.222C985.816 590.762 984.957 590.532 983.976 590.532C982.994 590.532 982.12 590.762 981.354 591.222C980.618 591.651 980.02 592.265 979.56 593.062C979.13 593.859 978.916 594.779 978.916 595.822C978.916 596.834 979.13 597.739 979.56 598.536C979.989 599.333 980.587 599.962 981.354 600.422C982.12 600.882 982.979 601.112 983.93 601.112ZM988.668 607V600.974L989.726 595.546L988.668 590.118V584.644H995.568V607H988.668ZM1009.28 607V584.644H1016.32V607H1009.28ZM1012.82 581.562C1011.72 581.562 1010.8 581.194 1010.06 580.458C1009.36 579.691 1009.01 578.771 1009.01 577.698C1009.01 576.594 1009.36 575.674 1010.06 574.938C1010.8 574.202 1011.72 573.834 1012.82 573.834C1013.93 573.834 1014.83 574.202 1015.54 574.938C1016.24 575.674 1016.6 576.594 1016.6 577.698C1016.6 578.771 1016.24 579.691 1015.54 580.458C1014.83 581.194 1013.93 581.562 1012.82 581.562ZM1036.04 607V594.258C1036.04 593.093 1035.67 592.157 1034.94 591.452C1034.23 590.716 1033.33 590.348 1032.22 590.348C1031.46 590.348 1030.78 590.517 1030.2 590.854C1029.62 591.161 1029.16 591.621 1028.82 592.234C1028.48 592.817 1028.31 593.491 1028.31 594.258L1025.6 592.924C1025.6 591.176 1025.98 589.643 1026.75 588.324C1027.52 587.005 1028.58 585.993 1029.92 585.288C1031.3 584.552 1032.85 584.184 1034.57 584.184C1036.23 584.184 1037.68 584.583 1038.94 585.38C1040.23 586.147 1041.24 587.174 1041.98 588.462C1042.71 589.75 1043.08 591.161 1043.08 592.694V607H1036.04ZM1021.28 607V584.644H1028.31V607H1021.28ZM1062.37 607V594.258C1062.37 593.093 1062 592.157 1061.26 591.452C1060.56 590.716 1059.65 590.348 1058.55 590.348C1057.78 590.348 1057.11 590.517 1056.53 590.854C1055.94 591.161 1055.48 591.621 1055.15 592.234C1054.81 592.817 1054.64 593.491 1054.64 594.258L1051.93 592.924C1051.93 591.176 1052.31 589.643 1053.08 588.324C1053.84 587.005 1054.9 585.993 1056.25 585.288C1057.63 584.552 1059.18 584.184 1060.9 584.184C1062.55 584.184 1064.01 584.583 1065.27 585.38C1066.55 586.147 1067.57 587.174 1068.3 588.462C1069.04 589.75 1069.41 591.161 1069.41 592.694V607H1062.37ZM1047.6 607V584.644H1054.64V607H1047.6ZM1084.69 607.506C1082.39 607.506 1080.3 607 1078.43 605.988C1076.59 604.945 1075.14 603.535 1074.06 601.756C1072.99 599.977 1072.45 597.984 1072.45 595.776C1072.45 593.568 1072.99 591.59 1074.06 589.842C1075.14 588.094 1076.59 586.714 1078.43 585.702C1080.27 584.659 1082.36 584.138 1084.69 584.138C1087.02 584.138 1089.11 584.644 1090.95 585.656C1092.79 586.668 1094.24 588.063 1095.32 589.842C1096.39 591.59 1096.93 593.568 1096.93 595.776C1096.93 597.984 1096.39 599.977 1095.32 601.756C1094.24 603.535 1092.79 604.945 1090.95 605.988C1089.11 607 1087.02 607.506 1084.69 607.506ZM1084.69 601.112C1085.7 601.112 1086.59 600.897 1087.36 600.468C1088.12 600.008 1088.71 599.379 1089.11 598.582C1089.53 597.754 1089.75 596.819 1089.75 595.776C1089.75 594.733 1089.53 593.829 1089.11 593.062C1088.68 592.265 1088.08 591.651 1087.31 591.222C1086.58 590.762 1085.7 590.532 1084.69 590.532C1083.71 590.532 1082.83 590.762 1082.07 591.222C1081.3 591.651 1080.7 592.265 1080.27 593.062C1079.84 593.859 1079.63 594.779 1079.63 595.822C1079.63 596.834 1079.84 597.754 1080.27 598.582C1080.7 599.379 1081.3 600.008 1082.07 600.468C1082.83 600.897 1083.71 601.112 1084.69 601.112ZM1106.84 607L1097.36 584.644H1104.95L1111.39 603.274H1108.08L1114.52 584.644H1121.97L1112.5 606.954L1106.84 607ZM1133.22 607.46C1131.16 607.46 1129.32 606.954 1127.7 605.942C1126.1 604.93 1124.83 603.55 1123.88 601.802C1122.96 600.054 1122.5 598.061 1122.5 595.822C1122.5 593.583 1122.96 591.59 1123.88 589.842C1124.83 588.094 1126.1 586.714 1127.7 585.702C1129.32 584.69 1131.16 584.184 1133.22 584.184C1134.72 584.184 1136.07 584.475 1137.26 585.058C1138.49 585.641 1139.49 586.453 1140.25 587.496C1141.02 588.508 1141.45 589.673 1141.54 590.992V600.652C1141.45 601.971 1141.02 603.151 1140.25 604.194C1139.52 605.206 1138.54 606.003 1137.31 606.586C1136.08 607.169 1134.72 607.46 1133.22 607.46ZM1134.64 601.112C1136.15 601.112 1137.36 600.621 1138.28 599.64C1139.2 598.628 1139.66 597.355 1139.66 595.822C1139.66 594.779 1139.44 593.859 1139.01 593.062C1138.61 592.265 1138.03 591.651 1137.26 591.222C1136.53 590.762 1135.67 590.532 1134.69 590.532C1133.71 590.532 1132.83 590.762 1132.07 591.222C1131.33 591.651 1130.73 592.265 1130.27 593.062C1129.84 593.859 1129.63 594.779 1129.63 595.822C1129.63 596.834 1129.84 597.739 1130.27 598.536C1130.7 599.333 1131.3 599.962 1132.07 600.422C1132.83 600.882 1133.69 601.112 1134.64 601.112ZM1139.38 607V600.974L1140.44 595.546L1139.38 590.118V584.644H1146.28V607H1139.38ZM1162.05 607.506C1159.75 607.506 1157.66 607 1155.79 605.988C1153.92 604.976 1152.45 603.581 1151.37 601.802C1150.3 600.023 1149.76 598.03 1149.76 595.822C1149.76 593.583 1150.3 591.59 1151.37 589.842C1152.48 588.063 1153.97 586.668 1155.84 585.656C1157.71 584.644 1159.81 584.138 1162.14 584.138C1163.89 584.138 1165.48 584.445 1166.92 585.058C1168.39 585.641 1169.7 586.53 1170.83 587.726L1166.32 592.234C1165.8 591.651 1165.19 591.222 1164.48 590.946C1163.81 590.67 1163.03 590.532 1162.14 590.532C1161.13 590.532 1160.22 590.762 1159.42 591.222C1158.66 591.651 1158.04 592.265 1157.58 593.062C1157.15 593.829 1156.94 594.733 1156.94 595.776C1156.94 596.819 1157.15 597.739 1157.58 598.536C1158.04 599.333 1158.67 599.962 1159.47 600.422C1160.27 600.882 1161.16 601.112 1162.14 601.112C1163.06 601.112 1163.87 600.959 1164.58 600.652C1165.31 600.315 1165.94 599.855 1166.46 599.272L1170.92 603.78C1169.76 605.007 1168.44 605.942 1166.97 606.586C1165.5 607.199 1163.86 607.506 1162.05 607.506ZM1174.06 607V584.644H1181.09V607H1174.06ZM1177.6 581.562C1176.49 581.562 1175.57 581.194 1174.84 580.458C1174.13 579.691 1173.78 578.771 1173.78 577.698C1173.78 576.594 1174.13 575.674 1174.84 574.938C1175.57 574.202 1176.49 573.834 1177.6 573.834C1178.7 573.834 1179.61 574.202 1180.31 574.938C1181.02 575.674 1181.37 576.594 1181.37 577.698C1181.37 578.771 1181.02 579.691 1180.31 580.458C1179.61 581.194 1178.7 581.562 1177.6 581.562ZM1196.81 607.506C1194.51 607.506 1192.43 607 1190.56 605.988C1188.72 604.945 1187.26 603.535 1186.19 601.756C1185.12 599.977 1184.58 597.984 1184.58 595.776C1184.58 593.568 1185.12 591.59 1186.19 589.842C1187.26 588.094 1188.72 586.714 1190.56 585.702C1192.4 584.659 1194.48 584.138 1196.81 584.138C1199.15 584.138 1201.23 584.644 1203.07 585.656C1204.91 586.668 1206.37 588.063 1207.44 589.842C1208.51 591.59 1209.05 593.568 1209.05 595.776C1209.05 597.984 1208.51 599.977 1207.44 601.756C1206.37 603.535 1204.91 604.945 1203.07 605.988C1201.23 607 1199.15 607.506 1196.81 607.506ZM1196.81 601.112C1197.83 601.112 1198.72 600.897 1199.48 600.468C1200.25 600.008 1200.83 599.379 1201.23 598.582C1201.66 597.754 1201.87 596.819 1201.87 595.776C1201.87 594.733 1201.66 593.829 1201.23 593.062C1200.8 592.265 1200.2 591.651 1199.44 591.222C1198.7 590.762 1197.83 590.532 1196.81 590.532C1195.83 590.532 1194.96 590.762 1194.19 591.222C1193.43 591.651 1192.83 592.265 1192.4 593.062C1191.97 593.859 1191.75 594.779 1191.75 595.822C1191.75 596.834 1191.97 597.754 1192.4 598.582C1192.83 599.379 1193.43 600.008 1194.19 600.468C1194.96 600.897 1195.83 601.112 1196.81 601.112ZM1193.5 582.114L1191.2 578.756L1198.52 571.902L1202.38 577.33L1193.5 582.114ZM1227.32 607V594.258C1227.32 593.093 1226.95 592.157 1226.22 591.452C1225.51 590.716 1224.61 590.348 1223.5 590.348C1222.74 590.348 1222.06 590.517 1221.48 590.854C1220.9 591.161 1220.44 591.621 1220.1 592.234C1219.76 592.817 1219.59 593.491 1219.59 594.258L1216.88 592.924C1216.88 591.176 1217.26 589.643 1218.03 588.324C1218.79 587.005 1219.85 585.993 1221.2 585.288C1222.58 584.552 1224.13 584.184 1225.85 584.184C1227.5 584.184 1228.96 584.583 1230.22 585.38C1231.51 586.147 1232.52 587.174 1233.25 588.462C1233.99 589.75 1234.36 591.161 1234.36 592.694V607H1227.32ZM1212.55 607V584.644H1219.59V607H1212.55Z" fill="white"/>
<path d="M465 520V343.5H504.25V520H465ZM614.992 520V450.75C614.992 444.417 612.992 439.333 608.992 435.5C605.159 431.5 600.242 429.5 594.242 429.5C590.076 429.5 586.409 430.417 583.242 432.25C580.076 433.917 577.576 436.417 575.742 439.75C573.909 442.917 572.992 446.583 572.992 450.75L558.242 443.5C558.242 434 560.326 425.667 564.492 418.5C568.659 411.333 574.409 405.833 581.742 402C589.242 398 597.659 396 606.992 396C615.992 396 623.909 398.167 630.742 402.5C637.742 406.667 643.242 412.25 647.242 419.25C651.242 426.25 653.242 433.917 653.242 442.25V520H614.992ZM534.742 520V398.5H572.992V520H534.742ZM758.059 520V450.75C758.059 444.417 756.059 439.333 752.059 435.5C748.225 431.5 743.309 429.5 737.309 429.5C733.142 429.5 729.475 430.417 726.309 432.25C723.142 433.917 720.642 436.417 718.809 439.75C716.975 442.917 716.059 446.583 716.059 450.75L701.309 443.5C701.309 434 703.392 425.667 707.559 418.5C711.725 411.333 717.475 405.833 724.809 402C732.309 398 740.725 396 750.059 396C759.059 396 766.975 398.167 773.809 402.5C780.809 406.667 786.309 412.25 790.309 419.25C794.309 426.25 796.309 433.917 796.309 442.25V520H758.059ZM677.809 520V398.5H716.059V520H677.809ZM879.375 522.75C866.875 522.75 855.542 520 845.375 514.5C835.375 508.833 827.458 501.167 821.625 491.5C815.792 481.833 812.875 471 812.875 459C812.875 447 815.792 436.25 821.625 426.75C827.458 417.25 835.375 409.75 845.375 404.25C855.375 398.583 866.708 395.75 879.375 395.75C892.042 395.75 903.375 398.5 913.375 404C923.375 409.5 931.292 417.083 937.125 426.75C942.958 436.25 945.875 447 945.875 459C945.875 471 942.958 481.833 937.125 491.5C931.292 501.167 923.375 508.833 913.375 514.5C903.375 520 892.042 522.75 879.375 522.75ZM879.375 488C884.875 488 889.708 486.833 893.875 484.5C898.042 482 901.208 478.583 903.375 474.25C905.708 469.75 906.875 464.667 906.875 459C906.875 453.333 905.708 448.417 903.375 444.25C901.042 439.917 897.792 436.583 893.625 434.25C889.625 431.75 884.875 430.5 879.375 430.5C874.042 430.5 869.292 431.75 865.125 434.25C860.958 436.583 857.708 439.917 855.375 444.25C853.042 448.583 851.875 453.583 851.875 459.25C851.875 464.75 853.042 469.75 855.375 474.25C857.708 478.583 860.958 482 865.125 484.5C869.292 486.833 874.042 488 879.375 488ZM999.75 520L948.25 398.5H989.5L1024.5 499.75H1006.5L1041.5 398.5H1082L1030.5 519.75L999.75 520ZM1143.11 522.5C1131.94 522.5 1121.94 519.75 1113.11 514.25C1104.44 508.75 1097.53 501.25 1092.36 491.75C1087.36 482.25 1084.86 471.417 1084.86 459.25C1084.86 447.083 1087.36 436.25 1092.36 426.75C1097.53 417.25 1104.44 409.75 1113.11 404.25C1121.94 398.75 1131.94 396 1143.11 396C1151.28 396 1158.61 397.583 1165.11 400.75C1171.78 403.917 1177.19 408.333 1181.36 414C1185.53 419.5 1187.86 425.833 1188.36 433V485.5C1187.86 492.667 1185.53 499.083 1181.36 504.75C1177.36 510.25 1172.03 514.583 1165.36 517.75C1158.69 520.917 1151.28 522.5 1143.11 522.5ZM1150.86 488C1159.03 488 1165.61 485.333 1170.61 480C1175.61 474.5 1178.11 467.583 1178.11 459.25C1178.11 453.583 1176.94 448.583 1174.61 444.25C1172.44 439.917 1169.28 436.583 1165.11 434.25C1161.11 431.75 1156.44 430.5 1151.11 430.5C1145.78 430.5 1141.03 431.75 1136.86 434.25C1132.86 436.583 1129.61 439.917 1127.11 444.25C1124.78 448.583 1123.61 453.583 1123.61 459.25C1123.61 464.75 1124.78 469.667 1127.11 474C1129.44 478.333 1132.69 481.75 1136.86 484.25C1141.03 486.75 1145.69 488 1150.86 488ZM1176.61 520V487.25L1182.36 457.75L1176.61 428.25V398.5H1214.11V520H1176.61Z" fill="#FF5247"/>
</svg>
