<svg width="1659" height="1659" viewBox="0 0 1659 1659" fill="none" xmlns="http://www.w3.org/2000/svg">
<path d="M395.8 870V622.9H450.75V870H395.8ZM605.789 870V773.05C605.789 764.183 602.989 757.067 597.389 751.7C592.022 746.1 585.139 743.3 576.739 743.3C570.906 743.3 565.772 744.583 561.339 747.15C556.906 749.483 553.406 752.983 550.839 757.65C548.272 762.083 546.989 767.217 546.989 773.05L526.339 762.9C526.339 749.6 529.256 737.933 535.089 727.9C540.922 717.867 548.972 710.167 559.239 704.8C569.739 699.2 581.522 696.4 594.589 696.4C607.189 696.4 618.272 699.433 627.839 705.5C637.639 711.333 645.339 719.15 650.939 728.95C656.539 738.75 659.339 749.483 659.339 761.15V870H605.789ZM493.439 870V699.9H546.989V870H493.439ZM806.082 870V773.05C806.082 764.183 803.282 757.067 797.682 751.7C792.315 746.1 785.432 743.3 777.032 743.3C771.199 743.3 766.065 744.583 761.632 747.15C757.199 749.483 753.699 752.983 751.132 757.65C748.565 762.083 747.282 767.217 747.282 773.05L726.632 762.9C726.632 749.6 729.549 737.933 735.382 727.9C741.215 717.867 749.265 710.167 759.532 704.8C770.032 699.2 781.815 696.4 794.882 696.4C807.482 696.4 818.565 699.433 828.132 705.5C837.932 711.333 845.632 719.15 851.232 728.95C856.832 738.75 859.632 749.483 859.632 761.15V870H806.082ZM693.732 870V699.9H747.282V870H693.732ZM975.925 873.85C958.425 873.85 942.558 870 928.325 862.3C914.325 854.367 903.242 843.633 895.075 830.1C886.908 816.567 882.825 801.4 882.825 784.6C882.825 767.8 886.908 752.75 895.075 739.45C903.242 726.15 914.325 715.65 928.325 707.95C942.325 700.017 958.192 696.05 975.925 696.05C993.658 696.05 1009.53 699.9 1023.53 707.6C1037.53 715.3 1048.61 725.917 1056.78 739.45C1064.94 752.75 1069.03 767.8 1069.03 784.6C1069.03 801.4 1064.94 816.567 1056.78 830.1C1048.61 843.633 1037.53 854.367 1023.53 862.3C1009.53 870 993.658 873.85 975.925 873.85ZM975.925 825.2C983.625 825.2 990.392 823.567 996.225 820.3C1002.06 816.8 1006.49 812.017 1009.53 805.95C1012.79 799.65 1014.43 792.533 1014.43 784.6C1014.43 776.667 1012.79 769.783 1009.53 763.95C1006.26 757.883 1001.71 753.217 995.875 749.95C990.275 746.45 983.625 744.7 975.925 744.7C968.458 744.7 961.808 746.45 955.975 749.95C950.142 753.217 945.592 757.883 942.325 763.95C939.058 770.017 937.425 777.017 937.425 784.95C937.425 792.65 939.058 799.65 942.325 805.95C945.592 812.017 950.142 816.8 955.975 820.3C961.808 823.567 968.458 825.2 975.925 825.2ZM1144.45 870L1072.35 699.9H1130.1L1179.1 841.65H1153.9L1202.9 699.9H1259.6L1187.5 869.65L1144.45 870ZM1345.15 873.5C1329.52 873.5 1315.52 869.65 1303.15 861.95C1291.02 854.25 1281.34 843.75 1274.1 830.45C1267.1 817.15 1263.6 801.983 1263.6 784.95C1263.6 767.917 1267.1 752.75 1274.1 739.45C1281.34 726.15 1291.02 715.65 1303.15 707.95C1315.52 700.25 1329.52 696.4 1345.15 696.4C1356.59 696.4 1366.85 698.617 1375.95 703.05C1385.29 707.483 1392.87 713.667 1398.7 721.6C1404.54 729.3 1407.8 738.167 1408.5 748.2V821.7C1407.8 831.733 1404.54 840.717 1398.7 848.65C1393.1 856.35 1385.64 862.417 1376.3 866.85C1366.97 871.283 1356.59 873.5 1345.15 873.5ZM1356 825.2C1367.44 825.2 1376.65 821.467 1383.65 814C1390.65 806.3 1394.15 796.617 1394.15 784.95C1394.15 777.017 1392.52 770.017 1389.25 763.95C1386.22 757.883 1381.79 753.217 1375.95 749.95C1370.35 746.45 1363.82 744.7 1356.35 744.7C1348.89 744.7 1342.24 746.45 1336.4 749.95C1330.8 753.217 1326.25 757.883 1322.75 763.95C1319.49 770.017 1317.85 777.017 1317.85 784.95C1317.85 792.65 1319.49 799.533 1322.75 805.6C1326.02 811.667 1330.57 816.45 1336.4 819.95C1342.24 823.45 1348.77 825.2 1356 825.2ZM1392.05 870V824.15L1400.1 782.85L1392.05 741.55V699.9H1444.55V870H1392.05Z" fill="#FF8C33"/>
<rect width="1659" height="1659" fill="#060C21"/>
<path d="M439.192 876.506C436.524 876.506 434.163 875.939 432.108 874.804C430.084 873.669 428.489 872.105 427.324 870.112C426.189 868.088 425.622 865.788 425.622 863.212V843.524H432.89V863.626C432.89 864.914 433.166 866.033 433.718 866.984C434.27 867.935 435.021 868.671 435.972 869.192C436.953 869.683 438.027 869.928 439.192 869.928C440.419 869.928 441.492 869.683 442.412 869.192C443.332 868.671 444.053 867.95 444.574 867.03C445.126 866.079 445.402 864.96 445.402 863.672V843.524H452.67V863.258C452.67 865.834 452.103 868.119 450.968 870.112C449.833 872.105 448.254 873.669 446.23 874.804C444.206 875.939 441.86 876.506 439.192 876.506ZM472.549 876V863.258C472.549 862.093 472.181 861.157 471.445 860.452C470.739 859.716 469.835 859.348 468.731 859.348C467.964 859.348 467.289 859.517 466.707 859.854C466.124 860.161 465.664 860.621 465.327 861.234C464.989 861.817 464.821 862.491 464.821 863.258L462.107 861.924C462.107 860.176 462.49 858.643 463.257 857.324C464.023 856.005 465.081 854.993 466.431 854.288C467.811 853.552 469.359 853.184 471.077 853.184C472.733 853.184 474.189 853.583 475.447 854.38C476.735 855.147 477.747 856.174 478.483 857.462C479.219 858.75 479.587 860.161 479.587 861.694V876H472.549ZM457.783 876V853.644H464.821V876H457.783ZM501.009 876.552C499.69 876.552 498.387 876.383 497.099 876.046C495.841 875.709 494.661 875.233 493.557 874.62C492.483 873.976 491.563 873.24 490.797 872.412L494.799 868.364C495.535 869.161 496.409 869.79 497.421 870.25C498.433 870.679 499.537 870.894 500.733 870.894C501.561 870.894 502.189 870.771 502.619 870.526C503.079 870.281 503.309 869.943 503.309 869.514C503.309 868.962 503.033 868.548 502.481 868.272C501.959 867.965 501.285 867.705 500.457 867.49C499.629 867.245 498.755 866.984 497.835 866.708C496.915 866.432 496.041 866.049 495.213 865.558C494.385 865.067 493.71 864.393 493.189 863.534C492.667 862.645 492.407 861.525 492.407 860.176C492.407 858.735 492.775 857.493 493.511 856.45C494.247 855.377 495.289 854.533 496.639 853.92C497.988 853.307 499.567 853 501.377 853C503.278 853 505.026 853.337 506.621 854.012C508.246 854.656 509.565 855.622 510.577 856.91L506.575 860.958C505.869 860.13 505.072 859.547 504.183 859.21C503.324 858.873 502.481 858.704 501.653 858.704C500.855 858.704 500.257 858.827 499.859 859.072C499.46 859.287 499.261 859.609 499.261 860.038C499.261 860.498 499.521 860.866 500.043 861.142C500.564 861.418 501.239 861.663 502.067 861.878C502.895 862.093 503.769 862.353 504.689 862.66C505.609 862.967 506.483 863.381 507.311 863.902C508.139 864.423 508.813 865.129 509.335 866.018C509.856 866.877 510.117 868.011 510.117 869.422C510.117 871.599 509.289 873.332 507.633 874.62C506.007 875.908 503.799 876.552 501.009 876.552ZM513.935 876V853.644H520.973V876H513.935ZM517.477 850.562C516.373 850.562 515.453 850.194 514.717 849.458C514.012 848.691 513.659 847.771 513.659 846.698C513.659 845.594 514.012 844.674 514.717 843.938C515.453 843.202 516.373 842.834 517.477 842.834C518.581 842.834 519.486 843.202 520.191 843.938C520.897 844.674 521.249 845.594 521.249 846.698C521.249 847.771 520.897 848.691 520.191 849.458C519.486 850.194 518.581 850.562 517.477 850.562ZM534.071 876.552C532.753 876.552 531.449 876.383 530.161 876.046C528.904 875.709 527.723 875.233 526.619 874.62C525.546 873.976 524.626 873.24 523.859 872.412L527.861 868.364C528.597 869.161 529.471 869.79 530.483 870.25C531.495 870.679 532.599 870.894 533.795 870.894C534.623 870.894 535.252 870.771 535.681 870.526C536.141 870.281 536.371 869.943 536.371 869.514C536.371 868.962 536.095 868.548 535.543 868.272C535.022 867.965 534.347 867.705 533.519 867.49C532.691 867.245 531.817 866.984 530.897 866.708C529.977 866.432 529.103 866.049 528.275 865.558C527.447 865.067 526.773 864.393 526.251 863.534C525.73 862.645 525.469 861.525 525.469 860.176C525.469 858.735 525.837 857.493 526.573 856.45C527.309 855.377 528.352 854.533 529.701 853.92C531.051 853.307 532.63 853 534.439 853C536.341 853 538.089 853.337 539.683 854.012C541.309 854.656 542.627 855.622 543.639 856.91L539.637 860.958C538.932 860.13 538.135 859.547 537.245 859.21C536.387 858.873 535.543 858.704 534.715 858.704C533.918 858.704 533.32 858.827 532.921 859.072C532.523 859.287 532.323 859.609 532.323 860.038C532.323 860.498 532.584 860.866 533.105 861.142C533.627 861.418 534.301 861.663 535.129 861.878C535.957 862.093 536.831 862.353 537.751 862.66C538.671 862.967 539.545 863.381 540.373 863.902C541.201 864.423 541.876 865.129 542.397 866.018C542.919 866.877 543.179 868.011 543.179 869.422C543.179 871.599 542.351 873.332 540.695 874.62C539.07 875.908 536.862 876.552 534.071 876.552ZM550.172 876V844.398H557.21V876H550.172ZM545.112 859.624V853.644H562.27V859.624H545.112ZM575.961 876.506C573.539 876.506 571.377 876.015 569.476 875.034C567.605 874.022 566.133 872.627 565.06 870.848C563.986 869.069 563.45 867.061 563.45 864.822C563.45 862.583 563.971 860.59 565.014 858.842C566.087 857.063 567.528 855.668 569.338 854.656C571.147 853.644 573.186 853.138 575.456 853.138C577.664 853.138 579.611 853.613 581.298 854.564C582.984 855.515 584.303 856.833 585.254 858.52C586.235 860.207 586.725 862.139 586.725 864.316C586.725 864.715 586.695 865.144 586.634 865.604C586.603 866.033 586.526 866.539 586.404 867.122L567.13 867.168V862.338L583.414 862.292L580.378 864.316C580.347 863.028 580.148 861.97 579.78 861.142C579.412 860.283 578.86 859.639 578.124 859.21C577.418 858.75 576.544 858.52 575.502 858.52C574.398 858.52 573.432 858.781 572.604 859.302C571.806 859.793 571.178 860.498 570.718 861.418C570.288 862.338 570.074 863.457 570.074 864.776C570.074 866.095 570.304 867.229 570.764 868.18C571.254 869.1 571.929 869.821 572.788 870.342C573.677 870.833 574.72 871.078 575.916 871.078C577.02 871.078 578.016 870.894 578.906 870.526C579.795 870.127 580.577 869.545 581.252 868.778L585.116 872.642C584.012 873.93 582.678 874.896 581.114 875.54C579.55 876.184 577.832 876.506 575.961 876.506ZM590.123 876V853.644H597.161V876H590.123ZM604.429 876V862.936C604.429 861.801 604.076 860.927 603.371 860.314C602.696 859.67 601.853 859.348 600.841 859.348C600.135 859.348 599.507 859.501 598.955 859.808C598.403 860.084 597.958 860.483 597.621 861.004C597.314 861.525 597.161 862.169 597.161 862.936L594.447 861.74C594.447 859.961 594.83 858.443 595.597 857.186C596.363 855.898 597.406 854.917 598.725 854.242C600.043 853.537 601.531 853.184 603.187 853.184C604.751 853.184 606.146 853.537 607.373 854.242C608.63 854.947 609.627 855.929 610.363 857.186C611.099 858.443 611.467 859.946 611.467 861.694V876H604.429ZM618.735 876V862.936C618.735 861.801 618.382 860.927 617.677 860.314C617.002 859.67 616.159 859.348 615.147 859.348C614.441 859.348 613.813 859.501 613.261 859.808C612.709 860.084 612.264 860.483 611.927 861.004C611.62 861.525 611.467 862.169 611.467 862.936L607.419 862.384C607.48 860.483 607.925 858.857 608.753 857.508C609.611 856.128 610.731 855.07 612.111 854.334C613.521 853.567 615.101 853.184 616.849 853.184C618.566 853.184 620.084 853.552 621.403 854.288C622.752 854.993 623.81 856.021 624.577 857.37C625.374 858.689 625.773 860.283 625.773 862.154V876H618.735ZM639.621 876.46C637.566 876.46 635.726 875.954 634.101 874.942C632.506 873.93 631.233 872.55 630.283 870.802C629.363 869.054 628.903 867.061 628.903 864.822C628.903 862.583 629.363 860.59 630.283 858.842C631.233 857.094 632.506 855.714 634.101 854.702C635.726 853.69 637.566 853.184 639.621 853.184C641.123 853.184 642.473 853.475 643.669 854.058C644.895 854.641 645.892 855.453 646.659 856.496C647.425 857.508 647.855 858.673 647.947 859.992V869.652C647.855 870.971 647.425 872.151 646.659 873.194C645.923 874.206 644.941 875.003 643.715 875.586C642.488 876.169 641.123 876.46 639.621 876.46ZM641.047 870.112C642.549 870.112 643.761 869.621 644.681 868.64C645.601 867.628 646.061 866.355 646.061 864.822C646.061 863.779 645.846 862.859 645.417 862.062C645.018 861.265 644.435 860.651 643.669 860.222C642.933 859.762 642.074 859.532 641.093 859.532C640.111 859.532 639.237 859.762 638.471 860.222C637.735 860.651 637.137 861.265 636.677 862.062C636.247 862.859 636.033 863.779 636.033 864.822C636.033 865.834 636.247 866.739 636.677 867.536C637.106 868.333 637.704 868.962 638.471 869.422C639.237 869.882 640.096 870.112 641.047 870.112ZM645.785 876V869.974L646.843 864.546L645.785 859.118V853.644H652.685V876H645.785ZM657.64 881.52L660.998 875.264L663.068 874.666C662.854 875.126 662.593 875.509 662.286 875.816C661.98 876.092 661.627 876.23 661.228 876.23C660.339 876.23 659.526 875.862 658.79 875.126C658.054 874.39 657.686 873.47 657.686 872.366C657.686 871.17 658.085 870.143 658.882 869.284C659.71 868.425 660.722 867.996 661.918 867.996C663.053 867.996 664.034 868.425 664.862 869.284C665.721 870.112 666.15 871.139 666.15 872.366C666.15 872.857 666.058 873.424 665.874 874.068C665.69 874.712 665.322 875.555 664.77 876.598L661.044 883.406L657.64 881.52ZM689.363 876.506C687.309 876.506 685.484 876.092 683.889 875.264C682.325 874.405 681.099 873.24 680.209 871.768C679.32 870.265 678.875 868.548 678.875 866.616V853.644H685.913V866.524C685.913 867.291 686.036 867.95 686.281 868.502C686.557 869.054 686.956 869.483 687.477 869.79C687.999 870.097 688.627 870.25 689.363 870.25C690.406 870.25 691.234 869.928 691.847 869.284C692.461 868.609 692.767 867.689 692.767 866.524V853.644H699.805V866.57C699.805 868.533 699.361 870.265 698.471 871.768C697.582 873.24 696.355 874.405 694.791 875.264C693.227 876.092 691.418 876.506 689.363 876.506ZM718.99 876V863.258C718.99 862.093 718.622 861.157 717.886 860.452C717.181 859.716 716.276 859.348 715.172 859.348C714.406 859.348 713.731 859.517 713.148 859.854C712.566 860.161 712.106 860.621 711.768 861.234C711.431 861.817 711.262 862.491 711.262 863.258L708.548 861.924C708.548 860.176 708.932 858.643 709.698 857.324C710.465 856.005 711.523 854.993 712.872 854.288C714.252 853.552 715.801 853.184 717.518 853.184C719.174 853.184 720.631 853.583 721.888 854.38C723.176 855.147 724.188 856.174 724.924 857.462C725.66 858.75 726.028 860.161 726.028 861.694V876H718.99ZM704.224 876V853.644H711.262V876H704.224ZM739.886 876.46C737.832 876.46 735.992 875.954 734.366 874.942C732.772 873.93 731.499 872.55 730.548 870.802C729.628 869.054 729.168 867.061 729.168 864.822C729.168 862.583 729.628 860.59 730.548 858.842C731.499 857.094 732.772 855.714 734.366 854.702C735.992 853.69 737.832 853.184 739.886 853.184C741.389 853.184 742.738 853.475 743.934 854.058C745.161 854.641 746.158 855.453 746.924 856.496C747.691 857.508 748.12 858.673 748.212 859.992V869.652C748.12 870.971 747.691 872.151 746.924 873.194C746.188 874.206 745.207 875.003 743.98 875.586C742.754 876.169 741.389 876.46 739.886 876.46ZM741.312 870.112C742.815 870.112 744.026 869.621 744.946 868.64C745.866 867.628 746.326 866.355 746.326 864.822C746.326 863.779 746.112 862.859 745.682 862.062C745.284 861.265 744.701 860.651 743.934 860.222C743.198 859.762 742.34 859.532 741.358 859.532C740.377 859.532 739.503 859.762 738.736 860.222C738 860.651 737.402 861.265 736.942 862.062C736.513 862.859 736.298 863.779 736.298 864.822C736.298 865.834 736.513 866.739 736.942 867.536C737.372 868.333 737.97 868.962 738.736 869.422C739.503 869.882 740.362 870.112 741.312 870.112ZM746.05 876V869.974L747.108 864.546L746.05 859.118V853.644H752.95V876H746.05ZM773.704 876L764.228 853.644H771.818L778.258 872.274H774.946L781.386 853.644H788.838L779.362 875.954L773.704 876ZM791.373 876V853.644H798.411V876H791.373ZM794.915 850.562C793.811 850.562 792.891 850.194 792.155 849.458C791.449 848.691 791.097 847.771 791.097 846.698C791.097 845.594 791.449 844.674 792.155 843.938C792.891 843.202 793.811 842.834 794.915 842.834C796.019 842.834 796.923 843.202 797.629 843.938C798.334 844.674 798.687 845.594 798.687 846.698C798.687 847.771 798.334 848.691 797.629 849.458C796.923 850.194 796.019 850.562 794.915 850.562ZM811.509 876.552C810.19 876.552 808.887 876.383 807.599 876.046C806.341 875.709 805.161 875.233 804.057 874.62C802.983 873.976 802.063 873.24 801.297 872.412L805.299 868.364C806.035 869.161 806.909 869.79 807.921 870.25C808.933 870.679 810.037 870.894 811.233 870.894C812.061 870.894 812.689 870.771 813.119 870.526C813.579 870.281 813.809 869.943 813.809 869.514C813.809 868.962 813.533 868.548 812.981 868.272C812.459 867.965 811.785 867.705 810.957 867.49C810.129 867.245 809.255 866.984 808.335 866.708C807.415 866.432 806.541 866.049 805.713 865.558C804.885 865.067 804.21 864.393 803.689 863.534C803.167 862.645 802.907 861.525 802.907 860.176C802.907 858.735 803.275 857.493 804.011 856.45C804.747 855.377 805.789 854.533 807.139 853.92C808.488 853.307 810.067 853 811.877 853C813.778 853 815.526 853.337 817.121 854.012C818.746 854.656 820.065 855.622 821.077 856.91L817.075 860.958C816.369 860.13 815.572 859.547 814.683 859.21C813.824 858.873 812.981 858.704 812.153 858.704C811.355 858.704 810.757 858.827 810.359 859.072C809.96 859.287 809.761 859.609 809.761 860.038C809.761 860.498 810.021 860.866 810.543 861.142C811.064 861.418 811.739 861.663 812.567 861.878C813.395 862.093 814.269 862.353 815.189 862.66C816.109 862.967 816.983 863.381 817.811 863.902C818.639 864.423 819.313 865.129 819.835 866.018C820.356 866.877 820.617 868.011 820.617 869.422C820.617 871.599 819.789 873.332 818.133 874.62C816.507 875.908 814.299 876.552 811.509 876.552ZM824.435 876V853.644H831.473V876H824.435ZM827.977 850.562C826.873 850.562 825.953 850.194 825.217 849.458C824.512 848.691 824.159 847.771 824.159 846.698C824.159 845.594 824.512 844.674 825.217 843.938C825.953 843.202 826.873 842.834 827.977 842.834C829.081 842.834 829.986 843.202 830.691 843.938C831.397 844.674 831.749 845.594 831.749 846.698C831.749 847.771 831.397 848.691 830.691 849.458C829.986 850.194 829.081 850.562 827.977 850.562ZM847.193 876.506C844.893 876.506 842.808 876 840.937 874.988C839.097 873.945 837.641 872.535 836.567 870.756C835.494 868.977 834.957 866.984 834.957 864.776C834.957 862.568 835.494 860.59 836.567 858.842C837.641 857.094 839.097 855.714 840.937 854.702C842.777 853.659 844.863 853.138 847.193 853.138C849.524 853.138 851.609 853.644 853.449 854.656C855.289 855.668 856.746 857.063 857.819 858.842C858.893 860.59 859.429 862.568 859.429 864.776C859.429 866.984 858.893 868.977 857.819 870.756C856.746 872.535 855.289 873.945 853.449 874.988C851.609 876 849.524 876.506 847.193 876.506ZM847.193 870.112C848.205 870.112 849.095 869.897 849.861 869.468C850.628 869.008 851.211 868.379 851.609 867.582C852.039 866.754 852.253 865.819 852.253 864.776C852.253 863.733 852.039 862.829 851.609 862.062C851.18 861.265 850.582 860.651 849.815 860.222C849.079 859.762 848.205 859.532 847.193 859.532C846.212 859.532 845.338 859.762 844.571 860.222C843.805 860.651 843.207 861.265 842.777 862.062C842.348 862.859 842.133 863.779 842.133 864.822C842.133 865.834 842.348 866.754 842.777 867.582C843.207 868.379 843.805 869.008 844.571 869.468C845.338 869.897 846.212 870.112 847.193 870.112ZM843.881 851.114L841.581 847.756L848.895 840.902L852.759 846.33L843.881 851.114ZM877.699 876V863.258C877.699 862.093 877.331 861.157 876.595 860.452C875.89 859.716 874.985 859.348 873.881 859.348C873.115 859.348 872.44 859.517 871.857 859.854C871.275 860.161 870.815 860.621 870.477 861.234C870.14 861.817 869.971 862.491 869.971 863.258L867.257 861.924C867.257 860.176 867.641 858.643 868.407 857.324C869.174 856.005 870.232 854.993 871.581 854.288C872.961 853.552 874.51 853.184 876.227 853.184C877.883 853.184 879.34 853.583 880.597 854.38C881.885 855.147 882.897 856.174 883.633 857.462C884.369 858.75 884.737 860.161 884.737 861.694V876H877.699ZM862.933 876V853.644H869.971V876H862.933ZM889.257 881.52L892.615 875.264L894.685 874.666C894.471 875.126 894.21 875.509 893.903 875.816C893.597 876.092 893.244 876.23 892.845 876.23C891.956 876.23 891.143 875.862 890.407 875.126C889.671 874.39 889.303 873.47 889.303 872.366C889.303 871.17 889.702 870.143 890.499 869.284C891.327 868.425 892.339 867.996 893.535 867.996C894.67 867.996 895.651 868.425 896.479 869.284C897.338 870.112 897.767 871.139 897.767 872.366C897.767 872.857 897.675 873.424 897.491 874.068C897.307 874.712 896.939 875.555 896.387 876.598L892.661 883.406L889.257 881.52ZM920.981 876.506C918.926 876.506 917.101 876.092 915.507 875.264C913.943 874.405 912.716 873.24 911.827 871.768C910.937 870.265 910.493 868.548 910.493 866.616V853.644H917.531V866.524C917.531 867.291 917.653 867.95 917.899 868.502C918.175 869.054 918.573 869.483 919.095 869.79C919.616 870.097 920.245 870.25 920.981 870.25C922.023 870.25 922.851 869.928 923.465 869.284C924.078 868.609 924.385 867.689 924.385 866.524V853.644H931.423V866.57C931.423 868.533 930.978 870.265 930.089 871.768C929.199 873.24 927.973 874.405 926.409 875.264C924.845 876.092 923.035 876.506 920.981 876.506ZM950.607 876V863.258C950.607 862.093 950.239 861.157 949.503 860.452C948.798 859.716 947.893 859.348 946.789 859.348C946.023 859.348 945.348 859.517 944.765 859.854C944.183 860.161 943.723 860.621 943.385 861.234C943.048 861.817 942.879 862.491 942.879 863.258L940.165 861.924C940.165 860.176 940.549 858.643 941.315 857.324C942.082 856.005 943.14 854.993 944.489 854.288C945.869 853.552 947.418 853.184 949.135 853.184C950.791 853.184 952.248 853.583 953.505 854.38C954.793 855.147 955.805 856.174 956.541 857.462C957.277 858.75 957.645 860.161 957.645 861.694V876H950.607ZM935.841 876V853.644H942.879V876H935.841ZM971.504 876.46C969.449 876.46 967.609 875.954 965.984 874.942C964.389 873.93 963.116 872.55 962.166 870.802C961.246 869.054 960.786 867.061 960.786 864.822C960.786 862.583 961.246 860.59 962.166 858.842C963.116 857.094 964.389 855.714 965.984 854.702C967.609 853.69 969.449 853.184 971.504 853.184C973.006 853.184 974.356 853.475 975.552 854.058C976.778 854.641 977.775 855.453 978.542 856.496C979.308 857.508 979.738 858.673 979.83 859.992V869.652C979.738 870.971 979.308 872.151 978.542 873.194C977.806 874.206 976.824 875.003 975.598 875.586C974.371 876.169 973.006 876.46 971.504 876.46ZM972.93 870.112C974.432 870.112 975.644 869.621 976.564 868.64C977.484 867.628 977.944 866.355 977.944 864.822C977.944 863.779 977.729 862.859 977.3 862.062C976.901 861.265 976.318 860.651 975.552 860.222C974.816 859.762 973.957 859.532 972.976 859.532C971.994 859.532 971.12 859.762 970.354 860.222C969.618 860.651 969.02 861.265 968.56 862.062C968.13 862.859 967.916 863.779 967.916 864.822C967.916 865.834 968.13 866.739 968.56 867.536C968.989 868.333 969.587 868.962 970.354 869.422C971.12 869.882 971.979 870.112 972.93 870.112ZM977.668 876V869.974L978.726 864.546L977.668 859.118V853.644H984.568V876H977.668ZM998.283 876V853.644H1005.32V876H998.283ZM1001.82 850.562C1000.72 850.562 999.801 850.194 999.065 849.458C998.359 848.691 998.007 847.771 998.007 846.698C998.007 845.594 998.359 844.674 999.065 843.938C999.801 843.202 1000.72 842.834 1001.82 842.834C1002.93 842.834 1003.83 843.202 1004.54 843.938C1005.24 844.674 1005.6 845.594 1005.6 846.698C1005.6 847.771 1005.24 848.691 1004.54 849.458C1003.83 850.194 1002.93 850.562 1001.82 850.562ZM1025.04 876V863.258C1025.04 862.093 1024.67 861.157 1023.94 860.452C1023.23 859.716 1022.33 859.348 1021.22 859.348C1020.46 859.348 1019.78 859.517 1019.2 859.854C1018.62 860.161 1018.16 860.621 1017.82 861.234C1017.48 861.817 1017.31 862.491 1017.31 863.258L1014.6 861.924C1014.6 860.176 1014.98 858.643 1015.75 857.324C1016.52 856.005 1017.58 854.993 1018.92 854.288C1020.3 853.552 1021.85 853.184 1023.57 853.184C1025.23 853.184 1026.68 853.583 1027.94 854.38C1029.23 855.147 1030.24 856.174 1030.98 857.462C1031.71 858.75 1032.08 860.161 1032.08 861.694V876H1025.04ZM1010.28 876V853.644H1017.31V876H1010.28ZM1051.37 876V863.258C1051.37 862.093 1051 861.157 1050.26 860.452C1049.56 859.716 1048.65 859.348 1047.55 859.348C1046.78 859.348 1046.11 859.517 1045.53 859.854C1044.94 860.161 1044.48 860.621 1044.15 861.234C1043.81 861.817 1043.64 862.491 1043.64 863.258L1040.93 861.924C1040.93 860.176 1041.31 858.643 1042.08 857.324C1042.84 856.005 1043.9 854.993 1045.25 854.288C1046.63 853.552 1048.18 853.184 1049.9 853.184C1051.55 853.184 1053.01 853.583 1054.27 854.38C1055.55 855.147 1056.57 856.174 1057.3 857.462C1058.04 858.75 1058.41 860.161 1058.41 861.694V876H1051.37ZM1036.6 876V853.644H1043.64V876H1036.6ZM1073.69 876.506C1071.39 876.506 1069.3 876 1067.43 874.988C1065.59 873.945 1064.14 872.535 1063.06 870.756C1061.99 868.977 1061.45 866.984 1061.45 864.776C1061.45 862.568 1061.99 860.59 1063.06 858.842C1064.14 857.094 1065.59 855.714 1067.43 854.702C1069.27 853.659 1071.36 853.138 1073.69 853.138C1076.02 853.138 1078.11 853.644 1079.95 854.656C1081.79 855.668 1083.24 857.063 1084.32 858.842C1085.39 860.59 1085.93 862.568 1085.93 864.776C1085.93 866.984 1085.39 868.977 1084.32 870.756C1083.24 872.535 1081.79 873.945 1079.95 874.988C1078.11 876 1076.02 876.506 1073.69 876.506ZM1073.69 870.112C1074.7 870.112 1075.59 869.897 1076.36 869.468C1077.12 869.008 1077.71 868.379 1078.11 867.582C1078.53 866.754 1078.75 865.819 1078.75 864.776C1078.75 863.733 1078.53 862.829 1078.11 862.062C1077.68 861.265 1077.08 860.651 1076.31 860.222C1075.58 859.762 1074.7 859.532 1073.69 859.532C1072.71 859.532 1071.83 859.762 1071.07 860.222C1070.3 860.651 1069.7 861.265 1069.27 862.062C1068.84 862.859 1068.63 863.779 1068.63 864.822C1068.63 865.834 1068.84 866.754 1069.27 867.582C1069.7 868.379 1070.3 869.008 1071.07 869.468C1071.83 869.897 1072.71 870.112 1073.69 870.112ZM1095.84 876L1086.36 853.644H1093.95L1100.39 872.274H1097.08L1103.52 853.644H1110.97L1101.5 875.954L1095.84 876ZM1122.22 876.46C1120.16 876.46 1118.32 875.954 1116.7 874.942C1115.1 873.93 1113.83 872.55 1112.88 870.802C1111.96 869.054 1111.5 867.061 1111.5 864.822C1111.5 862.583 1111.96 860.59 1112.88 858.842C1113.83 857.094 1115.1 855.714 1116.7 854.702C1118.32 853.69 1120.16 853.184 1122.22 853.184C1123.72 853.184 1125.07 853.475 1126.26 854.058C1127.49 854.641 1128.49 855.453 1129.25 856.496C1130.02 857.508 1130.45 858.673 1130.54 859.992V869.652C1130.45 870.971 1130.02 872.151 1129.25 873.194C1128.52 874.206 1127.54 875.003 1126.31 875.586C1125.08 876.169 1123.72 876.46 1122.22 876.46ZM1123.64 870.112C1125.15 870.112 1126.36 869.621 1127.28 868.64C1128.2 867.628 1128.66 866.355 1128.66 864.822C1128.66 863.779 1128.44 862.859 1128.01 862.062C1127.61 861.265 1127.03 860.651 1126.26 860.222C1125.53 859.762 1124.67 859.532 1123.69 859.532C1122.71 859.532 1121.83 859.762 1121.07 860.222C1120.33 860.651 1119.73 861.265 1119.27 862.062C1118.84 862.859 1118.63 863.779 1118.63 864.822C1118.63 865.834 1118.84 866.739 1119.27 867.536C1119.7 868.333 1120.3 868.962 1121.07 869.422C1121.83 869.882 1122.69 870.112 1123.64 870.112ZM1128.38 876V869.974L1129.44 864.546L1128.38 859.118V853.644H1135.28V876H1128.38ZM1151.05 876.506C1148.75 876.506 1146.66 876 1144.79 874.988C1142.92 873.976 1141.45 872.581 1140.37 870.802C1139.3 869.023 1138.76 867.03 1138.76 864.822C1138.76 862.583 1139.3 860.59 1140.37 858.842C1141.48 857.063 1142.97 855.668 1144.84 854.656C1146.71 853.644 1148.81 853.138 1151.14 853.138C1152.89 853.138 1154.48 853.445 1155.92 854.058C1157.39 854.641 1158.7 855.53 1159.83 856.726L1155.32 861.234C1154.8 860.651 1154.19 860.222 1153.48 859.946C1152.81 859.67 1152.03 859.532 1151.14 859.532C1150.13 859.532 1149.22 859.762 1148.42 860.222C1147.66 860.651 1147.04 861.265 1146.58 862.062C1146.15 862.829 1145.94 863.733 1145.94 864.776C1145.94 865.819 1146.15 866.739 1146.58 867.536C1147.04 868.333 1147.67 868.962 1148.47 869.422C1149.27 869.882 1150.16 870.112 1151.14 870.112C1152.06 870.112 1152.87 869.959 1153.58 869.652C1154.31 869.315 1154.94 868.855 1155.46 868.272L1159.92 872.78C1158.76 874.007 1157.44 874.942 1155.97 875.586C1154.5 876.199 1152.86 876.506 1151.05 876.506ZM1163.06 876V853.644H1170.09V876H1163.06ZM1166.6 850.562C1165.49 850.562 1164.57 850.194 1163.84 849.458C1163.13 848.691 1162.78 847.771 1162.78 846.698C1162.78 845.594 1163.13 844.674 1163.84 843.938C1164.57 843.202 1165.49 842.834 1166.6 842.834C1167.7 842.834 1168.61 843.202 1169.31 843.938C1170.02 844.674 1170.37 845.594 1170.37 846.698C1170.37 847.771 1170.02 848.691 1169.31 849.458C1168.61 850.194 1167.7 850.562 1166.6 850.562ZM1185.81 876.506C1183.51 876.506 1181.43 876 1179.56 874.988C1177.72 873.945 1176.26 872.535 1175.19 870.756C1174.12 868.977 1173.58 866.984 1173.58 864.776C1173.58 862.568 1174.12 860.59 1175.19 858.842C1176.26 857.094 1177.72 855.714 1179.56 854.702C1181.4 853.659 1183.48 853.138 1185.81 853.138C1188.15 853.138 1190.23 853.644 1192.07 854.656C1193.91 855.668 1195.37 857.063 1196.44 858.842C1197.51 860.59 1198.05 862.568 1198.05 864.776C1198.05 866.984 1197.51 868.977 1196.44 870.756C1195.37 872.535 1193.91 873.945 1192.07 874.988C1190.23 876 1188.15 876.506 1185.81 876.506ZM1185.81 870.112C1186.83 870.112 1187.72 869.897 1188.48 869.468C1189.25 869.008 1189.83 868.379 1190.23 867.582C1190.66 866.754 1190.87 865.819 1190.87 864.776C1190.87 863.733 1190.66 862.829 1190.23 862.062C1189.8 861.265 1189.2 860.651 1188.44 860.222C1187.7 859.762 1186.83 859.532 1185.81 859.532C1184.83 859.532 1183.96 859.762 1183.19 860.222C1182.43 860.651 1181.83 861.265 1181.4 862.062C1180.97 862.859 1180.75 863.779 1180.75 864.822C1180.75 865.834 1180.97 866.754 1181.4 867.582C1181.83 868.379 1182.43 869.008 1183.19 869.468C1183.96 869.897 1184.83 870.112 1185.81 870.112ZM1182.5 851.114L1180.2 847.756L1187.52 840.902L1191.38 846.33L1182.5 851.114ZM1216.32 876V863.258C1216.32 862.093 1215.95 861.157 1215.22 860.452C1214.51 859.716 1213.61 859.348 1212.5 859.348C1211.74 859.348 1211.06 859.517 1210.48 859.854C1209.9 860.161 1209.44 860.621 1209.1 861.234C1208.76 861.817 1208.59 862.491 1208.59 863.258L1205.88 861.924C1205.88 860.176 1206.26 858.643 1207.03 857.324C1207.79 856.005 1208.85 854.993 1210.2 854.288C1211.58 853.552 1213.13 853.184 1214.85 853.184C1216.5 853.184 1217.96 853.583 1219.22 854.38C1220.51 855.147 1221.52 856.174 1222.25 857.462C1222.99 858.75 1223.36 860.161 1223.36 861.694V876H1216.32ZM1201.55 876V853.644H1208.59V876H1201.55Z" fill="white"/>
<path d="M447 786V609.5H486.25V786H447ZM596.992 786V716.75C596.992 710.417 594.992 705.333 590.992 701.5C587.159 697.5 582.242 695.5 576.242 695.5C572.076 695.5 568.409 696.417 565.242 698.25C562.076 699.917 559.576 702.417 557.742 705.75C555.909 708.917 554.992 712.583 554.992 716.75L540.242 709.5C540.242 700 542.326 691.667 546.492 684.5C550.659 677.333 556.409 671.833 563.742 668C571.242 664 579.659 662 588.992 662C597.992 662 605.909 664.167 612.742 668.5C619.742 672.667 625.242 678.25 629.242 685.25C633.242 692.25 635.242 699.917 635.242 708.25V786H596.992ZM516.742 786V664.5H554.992V786H516.742ZM740.059 786V716.75C740.059 710.417 738.059 705.333 734.059 701.5C730.225 697.5 725.309 695.5 719.309 695.5C715.142 695.5 711.475 696.417 708.309 698.25C705.142 699.917 702.642 702.417 700.809 705.75C698.975 708.917 698.059 712.583 698.059 716.75L683.309 709.5C683.309 700 685.392 691.667 689.559 684.5C693.725 677.333 699.475 671.833 706.809 668C714.309 664 722.725 662 732.059 662C741.059 662 748.975 664.167 755.809 668.5C762.809 672.667 768.309 678.25 772.309 685.25C776.309 692.25 778.309 699.917 778.309 708.25V786H740.059ZM659.809 786V664.5H698.059V786H659.809ZM861.375 788.75C848.875 788.75 837.542 786 827.375 780.5C817.375 774.833 809.458 767.167 803.625 757.5C797.792 747.833 794.875 737 794.875 725C794.875 713 797.792 702.25 803.625 692.75C809.458 683.25 817.375 675.75 827.375 670.25C837.375 664.583 848.708 661.75 861.375 661.75C874.042 661.75 885.375 664.5 895.375 670C905.375 675.5 913.292 683.083 919.125 692.75C924.958 702.25 927.875 713 927.875 725C927.875 737 924.958 747.833 919.125 757.5C913.292 767.167 905.375 774.833 895.375 780.5C885.375 786 874.042 788.75 861.375 788.75ZM861.375 754C866.875 754 871.708 752.833 875.875 750.5C880.042 748 883.208 744.583 885.375 740.25C887.708 735.75 888.875 730.667 888.875 725C888.875 719.333 887.708 714.417 885.375 710.25C883.042 705.917 879.792 702.583 875.625 700.25C871.625 697.75 866.875 696.5 861.375 696.5C856.042 696.5 851.292 697.75 847.125 700.25C842.958 702.583 839.708 705.917 837.375 710.25C835.042 714.583 833.875 719.583 833.875 725.25C833.875 730.75 835.042 735.75 837.375 740.25C839.708 744.583 842.958 748 847.125 750.5C851.292 752.833 856.042 754 861.375 754ZM981.75 786L930.25 664.5H971.5L1006.5 765.75H988.5L1023.5 664.5H1064L1012.5 785.75L981.75 786ZM1125.11 788.5C1113.94 788.5 1103.94 785.75 1095.11 780.25C1086.44 774.75 1079.53 767.25 1074.36 757.75C1069.36 748.25 1066.86 737.417 1066.86 725.25C1066.86 713.083 1069.36 702.25 1074.36 692.75C1079.53 683.25 1086.44 675.75 1095.11 670.25C1103.94 664.75 1113.94 662 1125.11 662C1133.28 662 1140.61 663.583 1147.11 666.75C1153.78 669.917 1159.19 674.333 1163.36 680C1167.53 685.5 1169.86 691.833 1170.36 699V751.5C1169.86 758.667 1167.53 765.083 1163.36 770.75C1159.36 776.25 1154.03 780.583 1147.36 783.75C1140.69 786.917 1133.28 788.5 1125.11 788.5ZM1132.86 754C1141.03 754 1147.61 751.333 1152.61 746C1157.61 740.5 1160.11 733.583 1160.11 725.25C1160.11 719.583 1158.94 714.583 1156.61 710.25C1154.44 705.917 1151.28 702.583 1147.11 700.25C1143.11 697.75 1138.44 696.5 1133.11 696.5C1127.78 696.5 1123.03 697.75 1118.86 700.25C1114.86 702.583 1111.61 705.917 1109.11 710.25C1106.78 714.583 1105.61 719.583 1105.61 725.25C1105.61 730.75 1106.78 735.667 1109.11 740C1111.44 744.333 1114.69 747.75 1118.86 750.25C1123.03 752.75 1127.69 754 1132.86 754ZM1158.61 786V753.25L1164.36 723.75L1158.61 694.25V664.5H1196.11V786H1158.61Z" fill="#FF5247"/>
</svg>
