<svg width="2108" height="2108" viewBox="0 0 2108 2108" fill="none" xmlns="http://www.w3.org/2000/svg">
<rect width="2108" height="2108" fill="#060C21"/>
<path d="M382.6 1064V746.3H453.25V1064H382.6ZM652.586 1064V939.35C652.586 927.95 648.986 918.8 641.786 911.9C634.886 904.7 626.036 901.1 615.236 901.1C607.736 901.1 601.136 902.75 595.436 906.05C589.736 909.05 585.236 913.55 581.936 919.55C578.636 925.25 576.986 931.85 576.986 939.35L550.436 926.3C550.436 909.2 554.186 894.2 561.686 881.3C569.186 868.4 579.536 858.5 592.736 851.6C606.236 844.4 621.386 840.8 638.186 840.8C654.386 840.8 668.636 844.7 680.936 852.5C693.536 860 703.436 870.05 710.636 882.65C717.836 895.25 721.436 909.05 721.436 924.05V1064H652.586ZM508.136 1064V845.3H576.986V1064H508.136ZM910.105 1064V939.35C910.105 927.95 906.505 918.8 899.305 911.9C892.405 904.7 883.555 901.1 872.755 901.1C865.255 901.1 858.655 902.75 852.955 906.05C847.255 909.05 842.755 913.55 839.455 919.55C836.155 925.25 834.505 931.85 834.505 939.35L807.955 926.3C807.955 909.2 811.705 894.2 819.205 881.3C826.705 868.4 837.055 858.5 850.255 851.6C863.755 844.4 878.905 840.8 895.705 840.8C911.905 840.8 926.155 844.7 938.455 852.5C951.055 860 960.955 870.05 968.155 882.65C975.355 895.25 978.955 909.05 978.955 924.05V1064H910.105ZM765.655 1064V845.3H834.505V1064H765.655ZM1128.48 1068.95C1105.98 1068.95 1085.58 1064 1067.28 1054.1C1049.28 1043.9 1035.03 1030.1 1024.53 1012.7C1014.03 995.3 1008.78 975.8 1008.78 954.2C1008.78 932.6 1014.03 913.25 1024.53 896.15C1035.03 879.05 1049.28 865.55 1067.28 855.65C1085.28 845.45 1105.68 840.35 1128.48 840.35C1151.28 840.35 1171.68 845.3 1189.68 855.2C1207.68 865.1 1221.93 878.75 1232.43 896.15C1242.93 913.25 1248.18 932.6 1248.18 954.2C1248.18 975.8 1242.93 995.3 1232.43 1012.7C1221.93 1030.1 1207.68 1043.9 1189.68 1054.1C1171.68 1064 1151.28 1068.95 1128.48 1068.95ZM1128.48 1006.4C1138.38 1006.4 1147.08 1004.3 1154.58 1000.1C1162.08 995.6 1167.78 989.45 1171.68 981.65C1175.88 973.55 1177.98 964.4 1177.98 954.2C1177.98 944 1175.88 935.15 1171.68 927.65C1167.48 919.85 1161.63 913.85 1154.13 909.65C1146.93 905.15 1138.38 902.9 1128.48 902.9C1118.88 902.9 1110.33 905.15 1102.83 909.65C1095.33 913.85 1089.48 919.85 1085.28 927.65C1081.08 935.45 1078.98 944.45 1078.98 954.65C1078.98 964.55 1081.08 973.55 1085.28 981.65C1089.48 989.45 1095.33 995.6 1102.83 1000.1C1110.33 1004.3 1118.88 1006.4 1128.48 1006.4ZM1345.15 1064L1252.45 845.3H1326.7L1389.7 1027.55H1357.3L1420.3 845.3H1493.2L1400.5 1063.55L1345.15 1064ZM1603.2 1068.5C1583.1 1068.5 1565.1 1063.55 1549.2 1053.65C1533.6 1043.75 1521.15 1030.25 1511.85 1013.15C1502.85 996.05 1498.35 976.55 1498.35 954.65C1498.35 932.75 1502.85 913.25 1511.85 896.15C1521.15 879.05 1533.6 865.55 1549.2 855.65C1565.1 845.75 1583.1 840.8 1603.2 840.8C1617.9 840.8 1631.1 843.65 1642.8 849.35C1654.8 855.05 1664.55 863 1672.05 873.2C1679.55 883.1 1683.75 894.5 1684.65 907.4V1001.9C1683.75 1014.8 1679.55 1026.35 1672.05 1036.55C1664.85 1046.45 1655.25 1054.25 1643.25 1059.95C1631.25 1065.65 1617.9 1068.5 1603.2 1068.5ZM1617.15 1006.4C1631.85 1006.4 1643.7 1001.6 1652.7 992C1661.7 982.1 1666.2 969.65 1666.2 954.65C1666.2 944.45 1664.1 935.45 1659.9 927.65C1656 919.85 1650.3 913.85 1642.8 909.65C1635.6 905.15 1627.2 902.9 1617.6 902.9C1608 902.9 1599.45 905.15 1591.95 909.65C1584.75 913.85 1578.9 919.85 1574.4 927.65C1570.2 935.45 1568.1 944.45 1568.1 954.65C1568.1 964.55 1570.2 973.4 1574.4 981.2C1578.6 989 1584.45 995.15 1591.95 999.65C1599.45 1004.15 1607.85 1006.4 1617.15 1006.4ZM1663.5 1064V1005.05L1673.85 951.95L1663.5 898.85V845.3H1731V1064H1663.5Z" fill="#FF5247"/>
<rect x="1113" y="813" width="32" height="267" fill="#060C21"/>
<path d="M384.16 1181.88C379.52 1181.88 375.413 1180.89 371.84 1178.92C368.32 1176.95 365.547 1174.23 363.52 1170.76C361.547 1167.24 360.56 1163.24 360.56 1158.76V1124.52H373.2V1159.48C373.2 1161.72 373.68 1163.67 374.64 1165.32C375.6 1166.97 376.907 1168.25 378.56 1169.16C380.267 1170.01 382.133 1170.44 384.16 1170.44C386.293 1170.44 388.16 1170.01 389.76 1169.16C391.36 1168.25 392.613 1167 393.52 1165.4C394.48 1163.75 394.96 1161.8 394.96 1159.56V1124.52H407.6V1158.84C407.6 1163.32 406.613 1167.29 404.64 1170.76C402.667 1174.23 399.92 1176.95 396.4 1178.92C392.88 1180.89 388.8 1181.88 384.16 1181.88ZM442.172 1181V1158.84C442.172 1156.81 441.532 1155.19 440.252 1153.96C439.025 1152.68 437.452 1152.04 435.532 1152.04C434.199 1152.04 433.025 1152.33 432.012 1152.92C430.999 1153.45 430.199 1154.25 429.612 1155.32C429.025 1156.33 428.732 1157.51 428.732 1158.84L424.012 1156.52C424.012 1153.48 424.679 1150.81 426.012 1148.52C427.345 1146.23 429.185 1144.47 431.532 1143.24C433.932 1141.96 436.625 1141.32 439.612 1141.32C442.492 1141.32 445.025 1142.01 447.212 1143.4C449.452 1144.73 451.212 1146.52 452.492 1148.76C453.772 1151 454.412 1153.45 454.412 1156.12V1181H442.172ZM416.492 1181V1142.12H428.732V1181H416.492ZM491.668 1181.96C489.374 1181.96 487.108 1181.67 484.868 1181.08C482.681 1180.49 480.628 1179.67 478.708 1178.6C476.841 1177.48 475.241 1176.2 473.908 1174.76L480.868 1167.72C482.148 1169.11 483.668 1170.2 485.428 1171C487.188 1171.75 489.108 1172.12 491.188 1172.12C492.628 1172.12 493.721 1171.91 494.468 1171.48C495.268 1171.05 495.668 1170.47 495.668 1169.72C495.668 1168.76 495.188 1168.04 494.228 1167.56C493.321 1167.03 492.148 1166.57 490.708 1166.2C489.268 1165.77 487.748 1165.32 486.148 1164.84C484.547 1164.36 483.028 1163.69 481.588 1162.84C480.148 1161.99 478.974 1160.81 478.068 1159.32C477.161 1157.77 476.708 1155.83 476.708 1153.48C476.708 1150.97 477.348 1148.81 478.628 1147C479.908 1145.13 481.721 1143.67 484.068 1142.6C486.414 1141.53 489.161 1141 492.308 1141C495.614 1141 498.654 1141.59 501.428 1142.76C504.254 1143.88 506.548 1145.56 508.308 1147.8L501.348 1154.84C500.121 1153.4 498.734 1152.39 497.188 1151.8C495.694 1151.21 494.228 1150.92 492.788 1150.92C491.401 1150.92 490.361 1151.13 489.668 1151.56C488.974 1151.93 488.628 1152.49 488.628 1153.24C488.628 1154.04 489.081 1154.68 489.988 1155.16C490.894 1155.64 492.068 1156.07 493.508 1156.44C494.948 1156.81 496.468 1157.27 498.068 1157.8C499.668 1158.33 501.188 1159.05 502.628 1159.96C504.068 1160.87 505.241 1162.09 506.148 1163.64C507.054 1165.13 507.508 1167.11 507.508 1169.56C507.508 1173.35 506.068 1176.36 503.188 1178.6C500.361 1180.84 496.521 1181.96 491.668 1181.96ZM514.148 1181V1142.12H526.388V1181H514.148ZM520.308 1136.76C518.388 1136.76 516.788 1136.12 515.508 1134.84C514.281 1133.51 513.668 1131.91 513.668 1130.04C513.668 1128.12 514.281 1126.52 515.508 1125.24C516.788 1123.96 518.388 1123.32 520.308 1123.32C522.228 1123.32 523.801 1123.96 525.028 1125.24C526.255 1126.52 526.868 1128.12 526.868 1130.04C526.868 1131.91 526.255 1133.51 525.028 1134.84C523.801 1136.12 522.228 1136.76 520.308 1136.76ZM549.168 1181.96C546.874 1181.96 544.608 1181.67 542.368 1181.08C540.181 1180.49 538.128 1179.67 536.208 1178.6C534.341 1177.48 532.741 1176.2 531.408 1174.76L538.368 1167.72C539.648 1169.11 541.168 1170.2 542.928 1171C544.688 1171.75 546.608 1172.12 548.688 1172.12C550.128 1172.12 551.221 1171.91 551.968 1171.48C552.768 1171.05 553.168 1170.47 553.168 1169.72C553.168 1168.76 552.688 1168.04 551.728 1167.56C550.821 1167.03 549.648 1166.57 548.208 1166.2C546.768 1165.77 545.248 1165.32 543.648 1164.84C542.047 1164.36 540.528 1163.69 539.088 1162.84C537.648 1161.99 536.474 1160.81 535.568 1159.32C534.661 1157.77 534.208 1155.83 534.208 1153.48C534.208 1150.97 534.848 1148.81 536.128 1147C537.408 1145.13 539.221 1143.67 541.568 1142.6C543.914 1141.53 546.661 1141 549.808 1141C553.114 1141 556.154 1141.59 558.928 1142.76C561.754 1143.88 564.048 1145.56 565.808 1147.8L558.848 1154.84C557.621 1153.4 556.234 1152.39 554.688 1151.8C553.194 1151.21 551.728 1150.92 550.288 1150.92C548.901 1150.92 547.861 1151.13 547.168 1151.56C546.474 1151.93 546.128 1152.49 546.128 1153.24C546.128 1154.04 546.581 1154.68 547.488 1155.16C548.394 1155.64 549.568 1156.07 551.008 1156.44C552.448 1156.81 553.968 1157.27 555.568 1157.8C557.168 1158.33 558.688 1159.05 560.128 1159.96C561.568 1160.87 562.741 1162.09 563.648 1163.64C564.554 1165.13 565.008 1167.11 565.008 1169.56C565.008 1173.35 563.568 1176.36 560.688 1178.6C557.861 1180.84 554.021 1181.96 549.168 1181.96ZM577.168 1181V1126.04H589.408V1181H577.168ZM568.368 1152.52V1142.12H598.208V1152.52H568.368ZM622.02 1181.88C617.807 1181.88 614.047 1181.03 610.74 1179.32C607.487 1177.56 604.927 1175.13 603.06 1172.04C601.193 1168.95 600.26 1165.45 600.26 1161.56C600.26 1157.67 601.167 1154.2 602.98 1151.16C604.847 1148.07 607.353 1145.64 610.5 1143.88C613.647 1142.12 617.193 1141.24 621.14 1141.24C624.98 1141.24 628.367 1142.07 631.3 1143.72C634.233 1145.37 636.527 1147.67 638.18 1150.6C639.887 1153.53 640.74 1156.89 640.74 1160.68C640.74 1161.37 640.687 1162.12 640.58 1162.92C640.527 1163.67 640.393 1164.55 640.18 1165.56L606.66 1165.64V1157.24L634.98 1157.16L629.7 1160.68C629.647 1158.44 629.3 1156.6 628.66 1155.16C628.02 1153.67 627.06 1152.55 625.78 1151.8C624.553 1151 623.033 1150.6 621.22 1150.6C619.3 1150.6 617.62 1151.05 616.18 1151.96C614.793 1152.81 613.7 1154.04 612.9 1155.64C612.153 1157.24 611.78 1159.19 611.78 1161.48C611.78 1163.77 612.18 1165.75 612.98 1167.4C613.833 1169 615.007 1170.25 616.5 1171.16C618.047 1172.01 619.86 1172.44 621.94 1172.44C623.86 1172.44 625.593 1172.12 627.14 1171.48C628.687 1170.79 630.047 1169.77 631.22 1168.44L637.94 1175.16C636.02 1177.4 633.7 1179.08 630.98 1180.2C628.26 1181.32 625.273 1181.88 622.02 1181.88ZM646.648 1181V1142.12H658.888V1181H646.648ZM671.528 1181V1158.28C671.528 1156.31 670.915 1154.79 669.688 1153.72C668.515 1152.6 667.048 1152.04 665.288 1152.04C664.061 1152.04 662.968 1152.31 662.008 1152.84C661.048 1153.32 660.275 1154.01 659.688 1154.92C659.155 1155.83 658.888 1156.95 658.888 1158.28L654.168 1156.2C654.168 1153.11 654.835 1150.47 656.168 1148.28C657.501 1146.04 659.315 1144.33 661.608 1143.16C663.901 1141.93 666.488 1141.32 669.368 1141.32C672.088 1141.32 674.515 1141.93 676.648 1143.16C678.835 1144.39 680.568 1146.09 681.848 1148.28C683.128 1150.47 683.768 1153.08 683.768 1156.12V1181H671.528ZM696.408 1181V1158.28C696.408 1156.31 695.795 1154.79 694.568 1153.72C693.395 1152.6 691.928 1152.04 690.168 1152.04C688.941 1152.04 687.848 1152.31 686.888 1152.84C685.928 1153.32 685.155 1154.01 684.568 1154.92C684.035 1155.83 683.768 1156.95 683.768 1158.28L676.728 1157.32C676.835 1154.01 677.608 1151.19 679.048 1148.84C680.541 1146.44 682.488 1144.6 684.888 1143.32C687.341 1141.99 690.088 1141.32 693.128 1141.32C696.115 1141.32 698.755 1141.96 701.048 1143.24C703.395 1144.47 705.235 1146.25 706.568 1148.6C707.955 1150.89 708.648 1153.67 708.648 1156.92V1181H696.408ZM732.732 1181.8C729.159 1181.8 725.959 1180.92 723.132 1179.16C720.359 1177.4 718.145 1175 716.492 1171.96C714.892 1168.92 714.092 1165.45 714.092 1161.56C714.092 1157.67 714.892 1154.2 716.492 1151.16C718.145 1148.12 720.359 1145.72 723.132 1143.96C725.959 1142.2 729.159 1141.32 732.732 1141.32C735.345 1141.32 737.692 1141.83 739.772 1142.84C741.905 1143.85 743.639 1145.27 744.972 1147.08C746.305 1148.84 747.052 1150.87 747.212 1153.16V1169.96C747.052 1172.25 746.305 1174.31 744.972 1176.12C743.692 1177.88 741.985 1179.27 739.852 1180.28C737.719 1181.29 735.345 1181.8 732.732 1181.8ZM735.212 1170.76C737.825 1170.76 739.932 1169.91 741.532 1168.2C743.132 1166.44 743.932 1164.23 743.932 1161.56C743.932 1159.75 743.559 1158.15 742.812 1156.76C742.119 1155.37 741.105 1154.31 739.772 1153.56C738.492 1152.76 736.999 1152.36 735.292 1152.36C733.585 1152.36 732.065 1152.76 730.732 1153.56C729.452 1154.31 728.412 1155.37 727.612 1156.76C726.865 1158.15 726.492 1159.75 726.492 1161.56C726.492 1163.32 726.865 1164.89 727.612 1166.28C728.359 1167.67 729.399 1168.76 730.732 1169.56C732.065 1170.36 733.559 1170.76 735.212 1170.76ZM743.452 1181V1170.52L745.292 1161.08L743.452 1151.64V1142.12H755.452V1181H743.452ZM764.07 1190.6L769.91 1179.72L773.51 1178.68C773.137 1179.48 772.683 1180.15 772.15 1180.68C771.617 1181.16 771.003 1181.4 770.31 1181.4C768.763 1181.4 767.35 1180.76 766.07 1179.48C764.79 1178.2 764.15 1176.6 764.15 1174.68C764.15 1172.6 764.843 1170.81 766.23 1169.32C767.67 1167.83 769.43 1167.08 771.51 1167.08C773.483 1167.08 775.19 1167.83 776.63 1169.32C778.123 1170.76 778.87 1172.55 778.87 1174.68C778.87 1175.53 778.71 1176.52 778.39 1177.64C778.07 1178.76 777.43 1180.23 776.47 1182.04L769.99 1193.88L764.07 1190.6ZM819.241 1181.88C815.667 1181.88 812.494 1181.16 809.721 1179.72C807.001 1178.23 804.867 1176.2 803.321 1173.64C801.774 1171.03 801.001 1168.04 801.001 1164.68V1142.12H813.241V1164.52C813.241 1165.85 813.454 1167 813.881 1167.96C814.361 1168.92 815.054 1169.67 815.961 1170.2C816.867 1170.73 817.961 1171 819.241 1171C821.054 1171 822.494 1170.44 823.561 1169.32C824.627 1168.15 825.161 1166.55 825.161 1164.52V1142.12H837.401V1164.6C837.401 1168.01 836.627 1171.03 835.081 1173.64C833.534 1176.2 831.401 1178.23 828.681 1179.72C825.961 1181.16 822.814 1181.88 819.241 1181.88ZM870.766 1181V1158.84C870.766 1156.81 870.126 1155.19 868.846 1153.96C867.619 1152.68 866.046 1152.04 864.126 1152.04C862.792 1152.04 861.619 1152.33 860.606 1152.92C859.592 1153.45 858.792 1154.25 858.206 1155.32C857.619 1156.33 857.326 1157.51 857.326 1158.84L852.606 1156.52C852.606 1153.48 853.272 1150.81 854.606 1148.52C855.939 1146.23 857.779 1144.47 860.126 1143.24C862.526 1141.96 865.219 1141.32 868.206 1141.32C871.086 1141.32 873.619 1142.01 875.806 1143.4C878.046 1144.73 879.806 1146.52 881.086 1148.76C882.366 1151 883.006 1153.45 883.006 1156.12V1181H870.766ZM845.086 1181V1142.12H857.326V1181H845.086ZM907.107 1181.8C903.534 1181.8 900.334 1180.92 897.507 1179.16C894.734 1177.4 892.52 1175 890.867 1171.96C889.267 1168.92 888.467 1165.45 888.467 1161.56C888.467 1157.67 889.267 1154.2 890.867 1151.16C892.52 1148.12 894.734 1145.72 897.507 1143.96C900.334 1142.2 903.534 1141.32 907.107 1141.32C909.72 1141.32 912.067 1141.83 914.147 1142.84C916.28 1143.85 918.014 1145.27 919.347 1147.08C920.68 1148.84 921.427 1150.87 921.587 1153.16V1169.96C921.427 1172.25 920.68 1174.31 919.347 1176.12C918.067 1177.88 916.36 1179.27 914.227 1180.28C912.094 1181.29 909.72 1181.8 907.107 1181.8ZM909.587 1170.76C912.2 1170.76 914.307 1169.91 915.907 1168.2C917.507 1166.44 918.307 1164.23 918.307 1161.56C918.307 1159.75 917.934 1158.15 917.187 1156.76C916.494 1155.37 915.48 1154.31 914.147 1153.56C912.867 1152.76 911.374 1152.36 909.667 1152.36C907.96 1152.36 906.44 1152.76 905.107 1153.56C903.827 1154.31 902.787 1155.37 901.987 1156.76C901.24 1158.15 900.867 1159.75 900.867 1161.56C900.867 1163.32 901.24 1164.89 901.987 1166.28C902.734 1167.67 903.774 1168.76 905.107 1169.56C906.44 1170.36 907.934 1170.76 909.587 1170.76ZM917.827 1181V1170.52L919.667 1161.08L917.827 1151.64V1142.12H929.827V1181H917.827ZM965.919 1181L949.439 1142.12H962.639L973.839 1174.52H968.079L979.279 1142.12H992.239L975.759 1180.92L965.919 1181ZM996.648 1181V1142.12H1008.89V1181H996.648ZM1002.81 1136.76C1000.89 1136.76 999.288 1136.12 998.008 1134.84C996.781 1133.51 996.168 1131.91 996.168 1130.04C996.168 1128.12 996.781 1126.52 998.008 1125.24C999.288 1123.96 1000.89 1123.32 1002.81 1123.32C1004.73 1123.32 1006.3 1123.96 1007.53 1125.24C1008.75 1126.52 1009.37 1128.12 1009.37 1130.04C1009.37 1131.91 1008.75 1133.51 1007.53 1134.84C1006.3 1136.12 1004.73 1136.76 1002.81 1136.76ZM1031.67 1181.96C1029.37 1181.96 1027.11 1181.67 1024.87 1181.08C1022.68 1180.49 1020.63 1179.67 1018.71 1178.6C1016.84 1177.48 1015.24 1176.2 1013.91 1174.76L1020.87 1167.72C1022.15 1169.11 1023.67 1170.2 1025.43 1171C1027.19 1171.75 1029.11 1172.12 1031.19 1172.12C1032.63 1172.12 1033.72 1171.91 1034.47 1171.48C1035.27 1171.05 1035.67 1170.47 1035.67 1169.72C1035.67 1168.76 1035.19 1168.04 1034.23 1167.56C1033.32 1167.03 1032.15 1166.57 1030.71 1166.2C1029.27 1165.77 1027.75 1165.32 1026.15 1164.84C1024.55 1164.36 1023.03 1163.69 1021.59 1162.84C1020.15 1161.99 1018.97 1160.81 1018.07 1159.32C1017.16 1157.77 1016.71 1155.83 1016.71 1153.48C1016.71 1150.97 1017.35 1148.81 1018.63 1147C1019.91 1145.13 1021.72 1143.67 1024.07 1142.6C1026.41 1141.53 1029.16 1141 1032.31 1141C1035.61 1141 1038.65 1141.59 1041.43 1142.76C1044.25 1143.88 1046.55 1145.56 1048.31 1147.8L1041.35 1154.84C1040.12 1153.4 1038.73 1152.39 1037.19 1151.8C1035.69 1151.21 1034.23 1150.92 1032.79 1150.92C1031.4 1150.92 1030.36 1151.13 1029.67 1151.56C1028.97 1151.93 1028.63 1152.49 1028.63 1153.24C1028.63 1154.04 1029.08 1154.68 1029.99 1155.16C1030.89 1155.64 1032.07 1156.07 1033.51 1156.44C1034.95 1156.81 1036.47 1157.27 1038.07 1157.8C1039.67 1158.33 1041.19 1159.05 1042.63 1159.96C1044.07 1160.87 1045.24 1162.09 1046.15 1163.64C1047.05 1165.13 1047.51 1167.11 1047.51 1169.56C1047.51 1173.35 1046.07 1176.36 1043.19 1178.6C1040.36 1180.84 1036.52 1181.96 1031.67 1181.96ZM1054.15 1181V1142.12H1066.39V1181H1054.15ZM1060.31 1136.76C1058.39 1136.76 1056.79 1136.12 1055.51 1134.84C1054.28 1133.51 1053.67 1131.91 1053.67 1130.04C1053.67 1128.12 1054.28 1126.52 1055.51 1125.24C1056.79 1123.96 1058.39 1123.32 1060.31 1123.32C1062.23 1123.32 1063.8 1123.96 1065.03 1125.24C1066.25 1126.52 1066.87 1128.12 1066.87 1130.04C1066.87 1131.91 1066.25 1133.51 1065.03 1134.84C1063.8 1136.12 1062.23 1136.76 1060.31 1136.76ZM1093.73 1181.88C1089.73 1181.88 1086.1 1181 1082.85 1179.24C1079.65 1177.43 1077.11 1174.97 1075.25 1171.88C1073.38 1168.79 1072.45 1165.32 1072.45 1161.48C1072.45 1157.64 1073.38 1154.2 1075.25 1151.16C1077.11 1148.12 1079.65 1145.72 1082.85 1143.96C1086.05 1142.15 1089.67 1141.24 1093.73 1141.24C1097.78 1141.24 1101.41 1142.12 1104.61 1143.88C1107.81 1145.64 1110.34 1148.07 1112.21 1151.16C1114.07 1154.2 1115.01 1157.64 1115.01 1161.48C1115.01 1165.32 1114.07 1168.79 1112.21 1171.88C1110.34 1174.97 1107.81 1177.43 1104.61 1179.24C1101.41 1181 1097.78 1181.88 1093.73 1181.88ZM1093.73 1170.76C1095.49 1170.76 1097.03 1170.39 1098.37 1169.64C1099.7 1168.84 1100.71 1167.75 1101.41 1166.36C1102.15 1164.92 1102.53 1163.29 1102.53 1161.48C1102.53 1159.67 1102.15 1158.09 1101.41 1156.76C1100.66 1155.37 1099.62 1154.31 1098.29 1153.56C1097.01 1152.76 1095.49 1152.36 1093.73 1152.36C1092.02 1152.36 1090.5 1152.76 1089.17 1153.56C1087.83 1154.31 1086.79 1155.37 1086.05 1156.76C1085.3 1158.15 1084.93 1159.75 1084.93 1161.56C1084.93 1163.32 1085.3 1164.92 1086.05 1166.36C1086.79 1167.75 1087.83 1168.84 1089.17 1169.64C1090.5 1170.39 1092.02 1170.76 1093.73 1170.76ZM1087.97 1137.72L1083.97 1131.88L1096.69 1119.96L1103.41 1129.4L1087.97 1137.72ZM1146.78 1181V1158.84C1146.78 1156.81 1146.14 1155.19 1144.86 1153.96C1143.63 1152.68 1142.06 1152.04 1140.14 1152.04C1138.81 1152.04 1137.63 1152.33 1136.62 1152.92C1135.61 1153.45 1134.81 1154.25 1134.22 1155.32C1133.63 1156.33 1133.34 1157.51 1133.34 1158.84L1128.62 1156.52C1128.62 1153.48 1129.29 1150.81 1130.62 1148.52C1131.95 1146.23 1133.79 1144.47 1136.14 1143.24C1138.54 1141.96 1141.23 1141.32 1144.22 1141.32C1147.1 1141.32 1149.63 1142.01 1151.82 1143.4C1154.06 1144.73 1155.82 1146.52 1157.1 1148.76C1158.38 1151 1159.02 1153.45 1159.02 1156.12V1181H1146.78ZM1121.1 1181V1142.12H1133.34V1181H1121.1ZM1166.88 1190.6L1172.72 1179.72L1176.32 1178.68C1175.95 1179.48 1175.5 1180.15 1174.96 1180.68C1174.43 1181.16 1173.82 1181.4 1173.12 1181.4C1171.58 1181.4 1170.16 1180.76 1168.88 1179.48C1167.6 1178.2 1166.96 1176.6 1166.96 1174.68C1166.96 1172.6 1167.66 1170.81 1169.04 1169.32C1170.48 1167.83 1172.24 1167.08 1174.32 1167.08C1176.3 1167.08 1178 1167.83 1179.44 1169.32C1180.94 1170.76 1181.68 1172.55 1181.68 1174.68C1181.68 1175.53 1181.52 1176.52 1181.2 1177.64C1180.88 1178.76 1180.24 1180.23 1179.28 1182.04L1172.8 1193.88L1166.88 1190.6ZM1222.05 1181.88C1218.48 1181.88 1215.31 1181.16 1212.53 1179.72C1209.81 1178.23 1207.68 1176.2 1206.13 1173.64C1204.59 1171.03 1203.81 1168.04 1203.81 1164.68V1142.12H1216.05V1164.52C1216.05 1165.85 1216.27 1167 1216.69 1167.96C1217.17 1168.92 1217.87 1169.67 1218.77 1170.2C1219.68 1170.73 1220.77 1171 1222.05 1171C1223.87 1171 1225.31 1170.44 1226.37 1169.32C1227.44 1168.15 1227.97 1166.55 1227.97 1164.52V1142.12H1240.21V1164.6C1240.21 1168.01 1239.44 1171.03 1237.89 1173.64C1236.35 1176.2 1234.21 1178.23 1231.49 1179.72C1228.77 1181.16 1225.63 1181.88 1222.05 1181.88ZM1273.58 1181V1158.84C1273.58 1156.81 1272.94 1155.19 1271.66 1153.96C1270.43 1152.68 1268.86 1152.04 1266.94 1152.04C1265.6 1152.04 1264.43 1152.33 1263.42 1152.92C1262.4 1153.45 1261.6 1154.25 1261.02 1155.32C1260.43 1156.33 1260.14 1157.51 1260.14 1158.84L1255.42 1156.52C1255.42 1153.48 1256.08 1150.81 1257.42 1148.52C1258.75 1146.23 1260.59 1144.47 1262.94 1143.24C1265.34 1141.96 1268.03 1141.32 1271.02 1141.32C1273.9 1141.32 1276.43 1142.01 1278.62 1143.4C1280.86 1144.73 1282.62 1146.52 1283.9 1148.76C1285.18 1151 1285.82 1153.45 1285.82 1156.12V1181H1273.58ZM1247.9 1181V1142.12H1260.14V1181H1247.9ZM1309.92 1181.8C1306.35 1181.8 1303.15 1180.92 1300.32 1179.16C1297.55 1177.4 1295.33 1175 1293.68 1171.96C1292.08 1168.92 1291.28 1165.45 1291.28 1161.56C1291.28 1157.67 1292.08 1154.2 1293.68 1151.16C1295.33 1148.12 1297.55 1145.72 1300.32 1143.96C1303.15 1142.2 1306.35 1141.32 1309.92 1141.32C1312.53 1141.32 1314.88 1141.83 1316.96 1142.84C1319.09 1143.85 1320.83 1145.27 1322.16 1147.08C1323.49 1148.84 1324.24 1150.87 1324.4 1153.16V1169.96C1324.24 1172.25 1323.49 1174.31 1322.16 1176.12C1320.88 1177.88 1319.17 1179.27 1317.04 1180.28C1314.91 1181.29 1312.53 1181.8 1309.92 1181.8ZM1312.4 1170.76C1315.01 1170.76 1317.12 1169.91 1318.72 1168.2C1320.32 1166.44 1321.12 1164.23 1321.12 1161.56C1321.12 1159.75 1320.75 1158.15 1320 1156.76C1319.31 1155.37 1318.29 1154.31 1316.96 1153.56C1315.68 1152.76 1314.19 1152.36 1312.48 1152.36C1310.77 1152.36 1309.25 1152.76 1307.92 1153.56C1306.64 1154.31 1305.6 1155.37 1304.8 1156.76C1304.05 1158.15 1303.68 1159.75 1303.68 1161.56C1303.68 1163.32 1304.05 1164.89 1304.8 1166.28C1305.55 1167.67 1306.59 1168.76 1307.92 1169.56C1309.25 1170.36 1310.75 1170.76 1312.4 1170.76ZM1320.64 1181V1170.52L1322.48 1161.08L1320.64 1151.64V1142.12H1332.64V1181H1320.64ZM1356.49 1181V1142.12H1368.73V1181H1356.49ZM1362.65 1136.76C1360.73 1136.76 1359.13 1136.12 1357.85 1134.84C1356.63 1133.51 1356.01 1131.91 1356.01 1130.04C1356.01 1128.12 1356.63 1126.52 1357.85 1125.24C1359.13 1123.96 1360.73 1123.32 1362.65 1123.32C1364.57 1123.32 1366.15 1123.96 1367.37 1125.24C1368.6 1126.52 1369.21 1128.12 1369.21 1130.04C1369.21 1131.91 1368.6 1133.51 1367.37 1134.84C1366.15 1136.12 1364.57 1136.76 1362.65 1136.76ZM1403.03 1181V1158.84C1403.03 1156.81 1402.39 1155.19 1401.11 1153.96C1399.88 1152.68 1398.31 1152.04 1396.39 1152.04C1395.06 1152.04 1393.88 1152.33 1392.87 1152.92C1391.86 1153.45 1391.06 1154.25 1390.47 1155.32C1389.88 1156.33 1389.59 1157.51 1389.59 1158.84L1384.87 1156.52C1384.87 1153.48 1385.54 1150.81 1386.87 1148.52C1388.2 1146.23 1390.04 1144.47 1392.39 1143.24C1394.79 1141.96 1397.48 1141.32 1400.47 1141.32C1403.35 1141.32 1405.88 1142.01 1408.07 1143.4C1410.31 1144.73 1412.07 1146.52 1413.35 1148.76C1414.63 1151 1415.27 1153.45 1415.27 1156.12V1181H1403.03ZM1377.35 1181V1142.12H1389.59V1181H1377.35ZM1448.81 1181V1158.84C1448.81 1156.81 1448.17 1155.19 1446.89 1153.96C1445.67 1152.68 1444.09 1152.04 1442.17 1152.04C1440.84 1152.04 1439.67 1152.33 1438.65 1152.92C1437.64 1153.45 1436.84 1154.25 1436.25 1155.32C1435.67 1156.33 1435.37 1157.51 1435.37 1158.84L1430.65 1156.52C1430.65 1153.48 1431.32 1150.81 1432.65 1148.52C1433.99 1146.23 1435.83 1144.47 1438.17 1143.24C1440.57 1141.96 1443.27 1141.32 1446.25 1141.32C1449.13 1141.32 1451.67 1142.01 1453.85 1143.4C1456.09 1144.73 1457.85 1146.52 1459.13 1148.76C1460.41 1151 1461.05 1153.45 1461.05 1156.12V1181H1448.81ZM1423.13 1181V1142.12H1435.37V1181H1423.13ZM1487.63 1181.88C1483.63 1181.88 1480.01 1181 1476.75 1179.24C1473.55 1177.43 1471.02 1174.97 1469.15 1171.88C1467.29 1168.79 1466.35 1165.32 1466.35 1161.48C1466.35 1157.64 1467.29 1154.2 1469.15 1151.16C1471.02 1148.12 1473.55 1145.72 1476.75 1143.96C1479.95 1142.15 1483.58 1141.24 1487.63 1141.24C1491.69 1141.24 1495.31 1142.12 1498.51 1143.88C1501.71 1145.64 1504.25 1148.07 1506.11 1151.16C1507.98 1154.2 1508.91 1157.64 1508.91 1161.48C1508.91 1165.32 1507.98 1168.79 1506.11 1171.88C1504.25 1174.97 1501.71 1177.43 1498.51 1179.24C1495.31 1181 1491.69 1181.88 1487.63 1181.88ZM1487.63 1170.76C1489.39 1170.76 1490.94 1170.39 1492.27 1169.64C1493.61 1168.84 1494.62 1167.75 1495.31 1166.36C1496.06 1164.92 1496.43 1163.29 1496.43 1161.48C1496.43 1159.67 1496.06 1158.09 1495.31 1156.76C1494.57 1155.37 1493.53 1154.31 1492.19 1153.56C1490.91 1152.76 1489.39 1152.36 1487.63 1152.36C1485.93 1152.36 1484.41 1152.76 1483.07 1153.56C1481.74 1154.31 1480.7 1155.37 1479.95 1156.76C1479.21 1158.15 1478.83 1159.75 1478.83 1161.56C1478.83 1163.32 1479.21 1164.92 1479.95 1166.36C1480.7 1167.75 1481.74 1168.84 1483.07 1169.64C1484.41 1170.39 1485.93 1170.76 1487.63 1170.76ZM1526.15 1181L1509.67 1142.12H1522.87L1534.07 1174.52H1528.31L1539.51 1142.12H1552.47L1535.99 1180.92L1526.15 1181ZM1572.03 1181.8C1568.46 1181.8 1565.26 1180.92 1562.43 1179.16C1559.66 1177.4 1557.44 1175 1555.79 1171.96C1554.19 1168.92 1553.39 1165.45 1553.39 1161.56C1553.39 1157.67 1554.19 1154.2 1555.79 1151.16C1557.44 1148.12 1559.66 1145.72 1562.43 1143.96C1565.26 1142.2 1568.46 1141.32 1572.03 1141.32C1574.64 1141.32 1576.99 1141.83 1579.07 1142.84C1581.2 1143.85 1582.94 1145.27 1584.27 1147.08C1585.6 1148.84 1586.35 1150.87 1586.51 1153.16V1169.96C1586.35 1172.25 1585.6 1174.31 1584.27 1176.12C1582.99 1177.88 1581.28 1179.27 1579.15 1180.28C1577.02 1181.29 1574.64 1181.8 1572.03 1181.8ZM1574.51 1170.76C1577.12 1170.76 1579.23 1169.91 1580.83 1168.2C1582.43 1166.44 1583.23 1164.23 1583.23 1161.56C1583.23 1159.75 1582.86 1158.15 1582.11 1156.76C1581.42 1155.37 1580.4 1154.31 1579.07 1153.56C1577.79 1152.76 1576.3 1152.36 1574.59 1152.36C1572.88 1152.36 1571.36 1152.76 1570.03 1153.56C1568.75 1154.31 1567.71 1155.37 1566.91 1156.76C1566.16 1158.15 1565.79 1159.75 1565.79 1161.56C1565.79 1163.32 1566.16 1164.89 1566.91 1166.28C1567.66 1167.67 1568.7 1168.76 1570.03 1169.56C1571.36 1170.36 1572.86 1170.76 1574.51 1170.76ZM1582.75 1181V1170.52L1584.59 1161.08L1582.75 1151.64V1142.12H1594.75V1181H1582.75ZM1622.17 1181.88C1618.17 1181.88 1614.54 1181 1611.29 1179.24C1608.03 1177.48 1605.47 1175.05 1603.61 1171.96C1601.74 1168.87 1600.81 1165.4 1600.81 1161.56C1600.81 1157.67 1601.74 1154.2 1603.61 1151.16C1605.53 1148.07 1608.11 1145.64 1611.37 1143.88C1614.62 1142.12 1618.27 1141.24 1622.33 1141.24C1625.37 1141.24 1628.14 1141.77 1630.65 1142.84C1633.21 1143.85 1635.47 1145.4 1637.45 1147.48L1629.61 1155.32C1628.7 1154.31 1627.63 1153.56 1626.41 1153.08C1625.23 1152.6 1623.87 1152.36 1622.33 1152.36C1620.57 1152.36 1618.99 1152.76 1617.61 1153.56C1616.27 1154.31 1615.21 1155.37 1614.41 1156.76C1613.66 1158.09 1613.29 1159.67 1613.29 1161.48C1613.29 1163.29 1613.66 1164.89 1614.41 1166.28C1615.21 1167.67 1616.3 1168.76 1617.69 1169.56C1619.07 1170.36 1620.62 1170.76 1622.33 1170.76C1623.93 1170.76 1625.34 1170.49 1626.57 1169.96C1627.85 1169.37 1628.94 1168.57 1629.85 1167.56L1637.61 1175.4C1635.58 1177.53 1633.29 1179.16 1630.73 1180.28C1628.17 1181.35 1625.31 1181.88 1622.17 1181.88ZM1643.05 1181V1142.12H1655.29V1181H1643.05ZM1649.21 1136.76C1647.29 1136.76 1645.69 1136.12 1644.41 1134.84C1643.19 1133.51 1642.57 1131.91 1642.57 1130.04C1642.57 1128.12 1643.19 1126.52 1644.41 1125.24C1645.69 1123.96 1647.29 1123.32 1649.21 1123.32C1651.13 1123.32 1652.71 1123.96 1653.93 1125.24C1655.16 1126.52 1655.77 1128.12 1655.77 1130.04C1655.77 1131.91 1655.16 1133.51 1653.93 1134.84C1652.71 1136.12 1651.13 1136.76 1649.21 1136.76ZM1682.63 1181.88C1678.63 1181.88 1675.01 1181 1671.75 1179.24C1668.55 1177.43 1666.02 1174.97 1664.15 1171.88C1662.29 1168.79 1661.35 1165.32 1661.35 1161.48C1661.35 1157.64 1662.29 1154.2 1664.15 1151.16C1666.02 1148.12 1668.55 1145.72 1671.75 1143.96C1674.95 1142.15 1678.58 1141.24 1682.63 1141.24C1686.69 1141.24 1690.31 1142.12 1693.51 1143.88C1696.71 1145.64 1699.25 1148.07 1701.11 1151.16C1702.98 1154.2 1703.91 1157.64 1703.91 1161.48C1703.91 1165.32 1702.98 1168.79 1701.11 1171.88C1699.25 1174.97 1696.71 1177.43 1693.51 1179.24C1690.31 1181 1686.69 1181.88 1682.63 1181.88ZM1682.63 1170.76C1684.39 1170.76 1685.94 1170.39 1687.27 1169.64C1688.61 1168.84 1689.62 1167.75 1690.31 1166.36C1691.06 1164.92 1691.43 1163.29 1691.43 1161.48C1691.43 1159.67 1691.06 1158.09 1690.31 1156.76C1689.57 1155.37 1688.53 1154.31 1687.19 1153.56C1685.91 1152.76 1684.39 1152.36 1682.63 1152.36C1680.93 1152.36 1679.41 1152.76 1678.07 1153.56C1676.74 1154.31 1675.7 1155.37 1674.95 1156.76C1674.21 1158.15 1673.83 1159.75 1673.83 1161.56C1673.83 1163.32 1674.21 1164.92 1674.95 1166.36C1675.7 1167.75 1676.74 1168.84 1678.07 1169.64C1679.41 1170.39 1680.93 1170.76 1682.63 1170.76ZM1676.87 1137.72L1672.87 1131.88L1685.59 1119.96L1692.31 1129.4L1676.87 1137.72ZM1735.69 1181V1158.84C1735.69 1156.81 1735.05 1155.19 1733.77 1153.96C1732.54 1152.68 1730.97 1152.04 1729.05 1152.04C1727.71 1152.04 1726.54 1152.33 1725.53 1152.92C1724.51 1153.45 1723.71 1154.25 1723.13 1155.32C1722.54 1156.33 1722.25 1157.51 1722.25 1158.84L1717.53 1156.52C1717.53 1153.48 1718.19 1150.81 1719.53 1148.52C1720.86 1146.23 1722.7 1144.47 1725.05 1143.24C1727.45 1141.96 1730.14 1141.32 1733.13 1141.32C1736.01 1141.32 1738.54 1142.01 1740.73 1143.4C1742.97 1144.73 1744.73 1146.52 1746.01 1148.76C1747.29 1151 1747.93 1153.45 1747.93 1156.12V1181H1735.69ZM1710.01 1181V1142.12H1722.25V1181H1710.01Z" fill="white"/>
</svg>
