<svg width="284" height="284" viewBox="0 0 284 284" fill="none" xmlns="http://www.w3.org/2000/svg">
<circle cx="142" cy="142" r="142" fill="url(#paint0_radial_7_57)"/>
<circle cx="142.5" cy="141.5" r="111.5" fill="url(#paint1_linear_7_57)"/>
<path d="M65.18 192V177.76H69.18V192H65.18ZM73.78 192V177.76H77.78V192H73.78ZM67.36 186.4V183.08H75.34V186.4H67.36ZM85.0209 192.24C83.8743 192.24 82.8676 192.027 82.0009 191.6C81.1343 191.16 80.4543 190.553 79.9609 189.78C79.4809 188.993 79.2409 188.093 79.2409 187.08C79.2409 186.08 79.4743 185.193 79.9409 184.42C80.4209 183.647 81.0743 183.04 81.9009 182.6C82.7276 182.147 83.6609 181.92 84.7009 181.92C85.7276 181.92 86.6343 182.133 87.4209 182.56C88.2076 182.973 88.8209 183.553 89.2609 184.3C89.7143 185.047 89.9409 185.9 89.9409 186.86C89.9409 187.06 89.9276 187.273 89.9009 187.5C89.8876 187.713 89.8476 187.967 89.7809 188.26L80.9009 188.32V185.92L88.3209 185.86L86.5009 186.92C86.5009 186.387 86.4343 185.953 86.3009 185.62C86.1809 185.273 85.9943 185.013 85.7409 184.84C85.4876 184.667 85.1676 184.58 84.7809 184.58C84.3809 184.58 84.0343 184.68 83.7409 184.88C83.4476 185.08 83.2209 185.367 83.0609 185.74C82.9143 186.113 82.8409 186.567 82.8409 187.1C82.8409 187.647 82.9209 188.107 83.0809 188.48C83.2543 188.84 83.5009 189.113 83.8209 189.3C84.1409 189.487 84.5409 189.58 85.0209 189.58C85.4876 189.58 85.8943 189.507 86.2409 189.36C86.6009 189.2 86.9276 188.953 87.2209 188.62L89.1809 190.56C88.6876 191.12 88.0943 191.54 87.4009 191.82C86.7076 192.1 85.9143 192.24 85.0209 192.24ZM83.0009 181.36L82.0009 179.42L85.8009 176.72L87.4609 179.76L83.0009 181.36ZM96.0919 192.24C95.0252 192.24 94.0652 192.02 93.2119 191.58C92.3585 191.14 91.6852 190.533 91.1919 189.76C90.6985 188.973 90.4519 188.087 90.4519 187.1C90.4519 186.1 90.6985 185.213 91.1919 184.44C91.6985 183.653 92.3785 183.04 93.2319 182.6C94.0985 182.147 95.0719 181.92 96.1519 181.92C96.9252 181.92 97.6185 182.04 98.2319 182.28C98.8585 182.52 99.4385 182.887 99.9719 183.38L97.5119 185.84C97.3385 185.68 97.1452 185.56 96.9319 185.48C96.7185 185.4 96.4585 185.36 96.1519 185.36C95.8319 185.36 95.5385 185.433 95.2719 185.58C95.0185 185.713 94.8119 185.907 94.6519 186.16C94.4919 186.413 94.4119 186.713 94.4119 187.06C94.4119 187.407 94.4919 187.713 94.6519 187.98C94.8119 188.233 95.0252 188.433 95.2919 188.58C95.5585 188.727 95.8452 188.8 96.1519 188.8C96.4985 188.8 96.7852 188.747 97.0119 188.64C97.2385 188.533 97.4385 188.387 97.6119 188.2L100.072 190.66C99.4985 191.193 98.8985 191.593 98.2719 191.86C97.6452 192.113 96.9185 192.24 96.0919 192.24ZM102.353 192V178.12H106.273V192H102.353ZM100.253 185.36V182.16H108.373V185.36H100.253ZM114.295 192.24C113.215 192.24 112.248 192.02 111.395 191.58C110.555 191.127 109.888 190.507 109.395 189.72C108.915 188.933 108.675 188.047 108.675 187.06C108.675 186.073 108.915 185.193 109.395 184.42C109.875 183.647 110.535 183.04 111.375 182.6C112.228 182.147 113.195 181.92 114.275 181.92C115.355 181.92 116.315 182.147 117.155 182.6C117.995 183.04 118.655 183.647 119.135 184.42C119.628 185.193 119.875 186.073 119.875 187.06C119.875 188.047 119.635 188.933 119.155 189.72C118.675 190.507 118.015 191.127 117.175 191.58C116.335 192.02 115.375 192.24 114.295 192.24ZM114.275 188.8C114.608 188.8 114.895 188.733 115.135 188.6C115.388 188.453 115.581 188.253 115.715 188C115.848 187.733 115.915 187.427 115.915 187.08C115.915 186.733 115.841 186.433 115.695 186.18C115.561 185.913 115.375 185.713 115.135 185.58C114.895 185.433 114.608 185.36 114.275 185.36C113.955 185.36 113.668 185.433 113.415 185.58C113.175 185.727 112.981 185.933 112.835 186.2C112.701 186.453 112.635 186.753 112.635 187.1C112.635 187.433 112.701 187.733 112.835 188C112.981 188.253 113.175 188.453 113.415 188.6C113.668 188.733 113.955 188.8 114.275 188.8ZM121.092 192V182.16H125.012V192H121.092ZM125.012 186.68L123.192 185.06C123.699 183.993 124.286 183.213 124.952 182.72C125.632 182.213 126.479 181.96 127.492 181.96C127.946 181.96 128.332 182.013 128.652 182.12C128.986 182.227 129.252 182.38 129.452 182.58L127.252 185.7C127.159 185.593 127.019 185.507 126.832 185.44C126.659 185.36 126.452 185.32 126.212 185.32C125.812 185.32 125.512 185.44 125.312 185.68C125.112 185.907 125.012 186.24 125.012 186.68ZM141.184 192.24C140.078 192.24 139.051 192.06 138.104 191.7C137.171 191.327 136.351 190.807 135.644 190.14C134.951 189.473 134.411 188.693 134.024 187.8C133.638 186.907 133.444 185.933 133.444 184.88C133.444 183.813 133.644 182.833 134.044 181.94C134.458 181.047 135.024 180.273 135.744 179.62C136.478 178.953 137.324 178.44 138.284 178.08C139.244 177.707 140.271 177.52 141.364 177.52C142.684 177.52 143.864 177.747 144.904 178.2C145.958 178.653 146.811 179.267 147.464 180.04L144.764 182.74C144.271 182.167 143.758 181.74 143.224 181.46C142.691 181.18 142.051 181.04 141.304 181.04C140.598 181.04 139.958 181.2 139.384 181.52C138.811 181.827 138.351 182.267 138.004 182.84C137.671 183.413 137.504 184.087 137.504 184.86C137.504 185.633 137.658 186.313 137.964 186.9C138.284 187.473 138.724 187.92 139.284 188.24C139.844 188.56 140.498 188.72 141.244 188.72C141.964 188.72 142.571 188.58 143.064 188.3C143.558 188.02 143.931 187.62 144.184 187.1C144.451 186.58 144.584 185.967 144.584 185.26L147.324 187L140.704 186.8V183.6H148.604V184.2C148.604 185.907 148.291 187.36 147.664 188.56C147.051 189.76 146.184 190.673 145.064 191.3C143.958 191.927 142.664 192.24 141.184 192.24ZM154.822 192.24C153.742 192.24 152.775 192.02 151.922 191.58C151.082 191.127 150.415 190.507 149.922 189.72C149.442 188.933 149.202 188.047 149.202 187.06C149.202 186.073 149.442 185.193 149.922 184.42C150.402 183.647 151.062 183.04 151.902 182.6C152.755 182.147 153.722 181.92 154.802 181.92C155.882 181.92 156.842 182.147 157.682 182.6C158.522 183.04 159.182 183.647 159.662 184.42C160.155 185.193 160.402 186.073 160.402 187.06C160.402 188.047 160.162 188.933 159.682 189.72C159.202 190.507 158.542 191.127 157.702 191.58C156.862 192.02 155.902 192.24 154.822 192.24ZM154.802 188.8C155.135 188.8 155.422 188.733 155.662 188.6C155.915 188.453 156.109 188.253 156.242 188C156.375 187.733 156.442 187.427 156.442 187.08C156.442 186.733 156.369 186.433 156.222 186.18C156.089 185.913 155.902 185.713 155.662 185.58C155.422 185.433 155.135 185.36 154.802 185.36C154.482 185.36 154.195 185.433 153.942 185.58C153.702 185.727 153.509 185.933 153.362 186.2C153.229 186.453 153.162 186.753 153.162 187.1C153.162 187.433 153.229 187.733 153.362 188C153.509 188.253 153.702 188.453 153.942 188.6C154.195 188.733 154.482 188.8 154.802 188.8ZM167.88 192V186.48C167.88 186.093 167.766 185.8 167.54 185.6C167.326 185.387 167.053 185.28 166.72 185.28C166.493 185.28 166.286 185.327 166.1 185.42C165.926 185.513 165.786 185.653 165.68 185.84C165.586 186.013 165.54 186.227 165.54 186.48L164.02 185.8C164.02 185 164.193 184.313 164.54 183.74C164.9 183.167 165.386 182.727 166 182.42C166.626 182.113 167.333 181.96 168.12 181.96C168.826 181.96 169.453 182.12 170 182.44C170.56 182.747 171 183.173 171.32 183.72C171.64 184.253 171.8 184.873 171.8 185.58V192H167.88ZM161.62 192V182.16H165.54V192H161.62ZM172.955 189.62L177.355 184.54H182.215L177.815 189.62H172.955ZM172.955 192V189.62L175.295 188.88H182.095V192H172.955ZM173.295 185.28V182.16H182.215V184.54L179.875 185.28H173.295ZM187.497 192.2C186.577 192.2 185.764 191.98 185.057 191.54C184.35 191.1 183.797 190.5 183.397 189.74C182.997 188.967 182.797 188.08 182.797 187.08C182.797 186.08 182.997 185.193 183.397 184.42C183.797 183.647 184.35 183.047 185.057 182.62C185.764 182.18 186.577 181.96 187.497 181.96C188.07 181.96 188.597 182.06 189.077 182.26C189.57 182.447 189.977 182.713 190.297 183.06C190.63 183.407 190.844 183.807 190.937 184.26V189.9C190.844 190.353 190.63 190.753 190.297 191.1C189.977 191.447 189.57 191.72 189.077 191.92C188.597 192.107 188.07 192.2 187.497 192.2ZM188.377 188.76C188.87 188.76 189.264 188.607 189.557 188.3C189.864 187.98 190.017 187.573 190.017 187.08C190.017 186.747 189.95 186.46 189.817 186.22C189.684 185.967 189.49 185.767 189.237 185.62C188.997 185.473 188.717 185.4 188.397 185.4C188.077 185.4 187.79 185.473 187.537 185.62C187.297 185.767 187.104 185.967 186.957 186.22C186.81 186.473 186.737 186.76 186.737 187.08C186.737 187.4 186.804 187.687 186.937 187.94C187.084 188.193 187.284 188.393 187.537 188.54C187.79 188.687 188.07 188.76 188.377 188.76ZM189.897 192V189.36L190.437 186.96L189.897 184.58V182.16H193.717V192H189.897ZM186.617 181.36L185.617 179.42L189.417 176.72L191.077 179.76L186.617 181.36ZM195.604 192V177.36H199.524V192H195.604ZM206.525 192.24C205.378 192.24 204.372 192.027 203.505 191.6C202.638 191.16 201.958 190.553 201.465 189.78C200.985 188.993 200.745 188.093 200.745 187.08C200.745 186.08 200.978 185.193 201.445 184.42C201.925 183.647 202.578 183.04 203.405 182.6C204.232 182.147 205.165 181.92 206.205 181.92C207.232 181.92 208.138 182.133 208.925 182.56C209.712 182.973 210.325 183.553 210.765 184.3C211.218 185.047 211.445 185.9 211.445 186.86C211.445 187.06 211.432 187.273 211.405 187.5C211.392 187.713 211.352 187.967 211.285 188.26L202.405 188.32V185.92L209.825 185.86L208.005 186.92C208.005 186.387 207.938 185.953 207.805 185.62C207.685 185.273 207.498 185.013 207.245 184.84C206.992 184.667 206.672 184.58 206.285 184.58C205.885 184.58 205.538 184.68 205.245 184.88C204.952 185.08 204.725 185.367 204.565 185.74C204.418 186.113 204.345 186.567 204.345 187.1C204.345 187.647 204.425 188.107 204.585 188.48C204.758 188.84 205.005 189.113 205.325 189.3C205.645 189.487 206.045 189.58 206.525 189.58C206.992 189.58 207.398 189.507 207.745 189.36C208.105 189.2 208.432 188.953 208.725 188.62L210.685 190.56C210.192 191.12 209.598 191.54 208.905 191.82C208.212 192.1 207.418 192.24 206.525 192.24ZM212.096 189.62L216.496 184.54H221.356L216.956 189.62H212.096ZM212.096 192V189.62L214.436 188.88H221.236V192H212.096ZM212.436 185.28V182.16H221.356V184.54L219.016 185.28H212.436Z" fill="white"/>
<path d="M65.064 206V196.2H66.674V206H65.064ZM73.1924 206V202.122C73.1924 201.674 73.0478 201.305 72.7584 201.016C72.4784 200.727 72.1144 200.582 71.6664 200.582C71.3678 200.582 71.1018 200.647 70.8684 200.778C70.6351 200.909 70.4531 201.091 70.3224 201.324C70.1918 201.557 70.1264 201.823 70.1264 202.122L69.5244 201.786C69.5244 201.273 69.6364 200.82 69.8604 200.428C70.0844 200.027 70.3924 199.714 70.7844 199.49C71.1858 199.257 71.6338 199.14 72.1284 199.14C72.6324 199.14 73.0804 199.271 73.4724 199.532C73.8644 199.784 74.1724 200.115 74.3964 200.526C74.6204 200.927 74.7324 201.347 74.7324 201.786V206H73.1924ZM68.5864 206V199.28H70.1264V206H68.5864ZM80.9034 206V202.122C80.9034 201.674 80.7587 201.305 80.4694 201.016C80.1894 200.727 79.8254 200.582 79.3774 200.582C79.0787 200.582 78.8127 200.647 78.5794 200.778C78.346 200.909 78.164 201.091 78.0334 201.324C77.9027 201.557 77.8374 201.823 77.8374 202.122L77.2354 201.786C77.2354 201.273 77.3474 200.82 77.5714 200.428C77.7954 200.027 78.1034 199.714 78.4954 199.49C78.8967 199.257 79.3447 199.14 79.8394 199.14C80.3434 199.14 80.7914 199.271 81.1834 199.532C81.5754 199.784 81.8834 200.115 82.1074 200.526C82.3314 200.927 82.4434 201.347 82.4434 201.786V206H80.9034ZM76.2974 206V199.28H77.8374V206H76.2974ZM87.0883 206.14C86.435 206.14 85.8423 205.986 85.3103 205.678C84.7783 205.361 84.3536 204.936 84.0363 204.404C83.7283 203.872 83.5743 203.279 83.5743 202.626C83.5743 201.973 83.7283 201.385 84.0363 200.862C84.3536 200.339 84.7783 199.924 85.3103 199.616C85.8423 199.299 86.435 199.14 87.0883 199.14C87.751 199.14 88.3483 199.294 88.8803 199.602C89.4123 199.91 89.8323 200.33 90.1403 200.862C90.4576 201.385 90.6163 201.973 90.6163 202.626C90.6163 203.279 90.4576 203.872 90.1403 204.404C89.8323 204.936 89.4123 205.361 88.8803 205.678C88.3483 205.986 87.751 206.14 87.0883 206.14ZM87.0883 204.656C87.471 204.656 87.807 204.572 88.0963 204.404C88.395 204.227 88.6236 203.984 88.7823 203.676C88.9503 203.368 89.0343 203.018 89.0343 202.626C89.0343 202.234 88.9503 201.889 88.7823 201.59C88.6143 201.291 88.3856 201.058 88.0963 200.89C87.807 200.713 87.471 200.624 87.0883 200.624C86.715 200.624 86.379 200.713 86.0803 200.89C85.791 201.058 85.5623 201.291 85.3943 201.59C85.2356 201.889 85.1563 202.234 85.1563 202.626C85.1563 203.018 85.2356 203.368 85.3943 203.676C85.5623 203.984 85.791 204.227 86.0803 204.404C86.379 204.572 86.715 204.656 87.0883 204.656ZM93.9325 206L90.8665 199.28H92.5745L94.9125 204.754H93.9045L96.2565 199.28H97.8945L94.8285 206H93.9325ZM101.383 206.14C100.776 206.14 100.226 205.986 99.7308 205.678C99.2455 205.37 98.8582 204.955 98.5688 204.432C98.2888 203.9 98.1488 203.307 98.1488 202.654C98.1488 201.991 98.2888 201.399 98.5688 200.876C98.8582 200.344 99.2455 199.924 99.7308 199.616C100.226 199.299 100.776 199.14 101.383 199.14C101.896 199.14 102.349 199.252 102.741 199.476C103.142 199.691 103.46 199.989 103.693 200.372C103.926 200.755 104.043 201.189 104.043 201.674V203.606C104.043 204.091 103.926 204.525 103.693 204.908C103.469 205.291 103.156 205.594 102.755 205.818C102.354 206.033 101.896 206.14 101.383 206.14ZM101.635 204.684C102.204 204.684 102.662 204.493 103.007 204.11C103.362 203.727 103.539 203.237 103.539 202.64C103.539 202.239 103.46 201.884 103.301 201.576C103.142 201.268 102.918 201.03 102.629 200.862C102.349 200.685 102.018 200.596 101.635 200.596C101.262 200.596 100.93 200.685 100.641 200.862C100.361 201.03 100.137 201.268 99.9688 201.576C99.8102 201.884 99.7308 202.239 99.7308 202.64C99.7308 203.041 99.8102 203.396 99.9688 203.704C100.137 204.012 100.361 204.255 100.641 204.432C100.93 204.6 101.262 204.684 101.635 204.684ZM103.441 206V204.194L103.707 202.556L103.441 200.932V199.28H104.981V206H103.441Z" fill="white"/>
<defs>
<radialGradient id="paint0_radial_7_57" cx="0" cy="0" r="1" gradientUnits="userSpaceOnUse" gradientTransform="translate(142 142) rotate(90) scale(142)">
<stop stop-color="#FF5C00"/>
<stop offset="1" stop-color="#FFB800" stop-opacity="0"/>
</radialGradient>
<linearGradient id="paint1_linear_7_57" x1="142.5" y1="30" x2="142.5" y2="253" gradientUnits="userSpaceOnUse">
<stop stop-color="#FF5C00"/>
<stop offset="1" stop-color="#FFB800"/>
</linearGradient>
</defs>
</svg>
