<svg width="1659" height="1659" viewBox="0 0 1659 1659" fill="none" xmlns="http://www.w3.org/2000/svg">
<path d="M395.8 870V622.9H450.75V870H395.8ZM605.789 870V773.05C605.789 764.183 602.989 757.067 597.389 751.7C592.022 746.1 585.139 743.3 576.739 743.3C570.906 743.3 565.772 744.583 561.339 747.15C556.906 749.483 553.406 752.983 550.839 757.65C548.272 762.083 546.989 767.217 546.989 773.05L526.339 762.9C526.339 749.6 529.256 737.933 535.089 727.9C540.922 717.867 548.972 710.167 559.239 704.8C569.739 699.2 581.522 696.4 594.589 696.4C607.189 696.4 618.272 699.433 627.839 705.5C637.639 711.333 645.339 719.15 650.939 728.95C656.539 738.75 659.339 749.483 659.339 761.15V870H605.789ZM493.439 870V699.9H546.989V870H493.439ZM806.082 870V773.05C806.082 764.183 803.282 757.067 797.682 751.7C792.315 746.1 785.432 743.3 777.032 743.3C771.199 743.3 766.065 744.583 761.632 747.15C757.199 749.483 753.699 752.983 751.132 757.65C748.565 762.083 747.282 767.217 747.282 773.05L726.632 762.9C726.632 749.6 729.549 737.933 735.382 727.9C741.215 717.867 749.265 710.167 759.532 704.8C770.032 699.2 781.815 696.4 794.882 696.4C807.482 696.4 818.565 699.433 828.132 705.5C837.932 711.333 845.632 719.15 851.232 728.95C856.832 738.75 859.632 749.483 859.632 761.15V870H806.082ZM693.732 870V699.9H747.282V870H693.732ZM975.925 873.85C958.425 873.85 942.558 870 928.325 862.3C914.325 854.367 903.242 843.633 895.075 830.1C886.908 816.567 882.825 801.4 882.825 784.6C882.825 767.8 886.908 752.75 895.075 739.45C903.242 726.15 914.325 715.65 928.325 707.95C942.325 700.017 958.192 696.05 975.925 696.05C993.658 696.05 1009.53 699.9 1023.53 707.6C1037.53 715.3 1048.61 725.917 1056.78 739.45C1064.94 752.75 1069.03 767.8 1069.03 784.6C1069.03 801.4 1064.94 816.567 1056.78 830.1C1048.61 843.633 1037.53 854.367 1023.53 862.3C1009.53 870 993.658 873.85 975.925 873.85ZM975.925 825.2C983.625 825.2 990.392 823.567 996.225 820.3C1002.06 816.8 1006.49 812.017 1009.53 805.95C1012.79 799.65 1014.43 792.533 1014.43 784.6C1014.43 776.667 1012.79 769.783 1009.53 763.95C1006.26 757.883 1001.71 753.217 995.875 749.95C990.275 746.45 983.625 744.7 975.925 744.7C968.458 744.7 961.808 746.45 955.975 749.95C950.142 753.217 945.592 757.883 942.325 763.95C939.058 770.017 937.425 777.017 937.425 784.95C937.425 792.65 939.058 799.65 942.325 805.95C945.592 812.017 950.142 816.8 955.975 820.3C961.808 823.567 968.458 825.2 975.925 825.2ZM1144.45 870L1072.35 699.9H1130.1L1179.1 841.65H1153.9L1202.9 699.9H1259.6L1187.5 869.65L1144.45 870ZM1345.15 873.5C1329.52 873.5 1315.52 869.65 1303.15 861.95C1291.02 854.25 1281.34 843.75 1274.1 830.45C1267.1 817.15 1263.6 801.983 1263.6 784.95C1263.6 767.917 1267.1 752.75 1274.1 739.45C1281.34 726.15 1291.02 715.65 1303.15 707.95C1315.52 700.25 1329.52 696.4 1345.15 696.4C1356.59 696.4 1366.85 698.617 1375.95 703.05C1385.29 707.483 1392.87 713.667 1398.7 721.6C1404.54 729.3 1407.8 738.167 1408.5 748.2V821.7C1407.8 831.733 1404.54 840.717 1398.7 848.65C1393.1 856.35 1385.64 862.417 1376.3 866.85C1366.97 871.283 1356.59 873.5 1345.15 873.5ZM1356 825.2C1367.44 825.2 1376.65 821.467 1383.65 814C1390.65 806.3 1394.15 796.617 1394.15 784.95C1394.15 777.017 1392.52 770.017 1389.25 763.95C1386.22 757.883 1381.79 753.217 1375.95 749.95C1370.35 746.45 1363.82 744.7 1356.35 744.7C1348.89 744.7 1342.24 746.45 1336.4 749.95C1330.8 753.217 1326.25 757.883 1322.75 763.95C1319.49 770.017 1317.85 777.017 1317.85 784.95C1317.85 792.65 1319.49 799.533 1322.75 805.6C1326.02 811.667 1330.57 816.45 1336.4 819.95C1342.24 823.45 1348.77 825.2 1356 825.2ZM1392.05 870V824.15L1400.1 782.85L1392.05 741.55V699.9H1444.55V870H1392.05Z" fill="#FF8C33"/>
<rect width="1659" height="1659" fill="#060C21"/>
<path d="M302.8 870V622.9H357.75V870H302.8ZM512.789 870V773.05C512.789 764.183 509.989 757.067 504.389 751.7C499.022 746.1 492.139 743.3 483.739 743.3C477.906 743.3 472.772 744.583 468.339 747.15C463.906 749.483 460.406 752.983 457.839 757.65C455.272 762.083 453.989 767.217 453.989 773.05L433.339 762.9C433.339 749.6 436.256 737.933 442.089 727.9C447.922 717.867 455.972 710.167 466.239 704.8C476.739 699.2 488.522 696.4 501.589 696.4C514.189 696.4 525.272 699.433 534.839 705.5C544.639 711.333 552.339 719.15 557.939 728.95C563.539 738.75 566.339 749.483 566.339 761.15V870H512.789ZM400.439 870V699.9H453.989V870H400.439ZM713.082 870V773.05C713.082 764.183 710.282 757.067 704.682 751.7C699.315 746.1 692.432 743.3 684.032 743.3C678.199 743.3 673.065 744.583 668.632 747.15C664.199 749.483 660.699 752.983 658.132 757.65C655.565 762.083 654.282 767.217 654.282 773.05L633.632 762.9C633.632 749.6 636.549 737.933 642.382 727.9C648.215 717.867 656.265 710.167 666.532 704.8C677.032 699.2 688.815 696.4 701.882 696.4C714.482 696.4 725.565 699.433 735.132 705.5C744.932 711.333 752.632 719.15 758.232 728.95C763.832 738.75 766.632 749.483 766.632 761.15V870H713.082ZM600.732 870V699.9H654.282V870H600.732ZM882.925 873.85C865.425 873.85 849.558 870 835.325 862.3C821.325 854.367 810.242 843.633 802.075 830.1C793.908 816.567 789.825 801.4 789.825 784.6C789.825 767.8 793.908 752.75 802.075 739.45C810.242 726.15 821.325 715.65 835.325 707.95C849.325 700.017 865.192 696.05 882.925 696.05C900.658 696.05 916.525 699.9 930.525 707.6C944.525 715.3 955.608 725.917 963.775 739.45C971.942 752.75 976.025 767.8 976.025 784.6C976.025 801.4 971.942 816.567 963.775 830.1C955.608 843.633 944.525 854.367 930.525 862.3C916.525 870 900.658 873.85 882.925 873.85ZM882.925 825.2C890.625 825.2 897.392 823.567 903.225 820.3C909.058 816.8 913.492 812.017 916.525 805.95C919.792 799.65 921.425 792.533 921.425 784.6C921.425 776.667 919.792 769.783 916.525 763.95C913.258 757.883 908.708 753.217 902.875 749.95C897.275 746.45 890.625 744.7 882.925 744.7C875.458 744.7 868.808 746.45 862.975 749.95C857.142 753.217 852.592 757.883 849.325 763.95C846.058 770.017 844.425 777.017 844.425 784.95C844.425 792.65 846.058 799.65 849.325 805.95C852.592 812.017 857.142 816.8 862.975 820.3C868.808 823.567 875.458 825.2 882.925 825.2ZM1051.45 870L979.35 699.9H1037.1L1086.1 841.65H1060.9L1109.9 699.9H1166.6L1094.5 869.65L1051.45 870ZM1252.15 873.5C1236.52 873.5 1222.52 869.65 1210.15 861.95C1198.02 854.25 1188.34 843.75 1181.1 830.45C1174.1 817.15 1170.6 801.983 1170.6 784.95C1170.6 767.917 1174.1 752.75 1181.1 739.45C1188.34 726.15 1198.02 715.65 1210.15 707.95C1222.52 700.25 1236.52 696.4 1252.15 696.4C1263.59 696.4 1273.85 698.617 1282.95 703.05C1292.29 707.483 1299.87 713.667 1305.7 721.6C1311.54 729.3 1314.8 738.167 1315.5 748.2V821.7C1314.8 831.733 1311.54 840.717 1305.7 848.65C1300.1 856.35 1292.64 862.417 1283.3 866.85C1273.97 871.283 1263.59 873.5 1252.15 873.5ZM1263 825.2C1274.44 825.2 1283.65 821.467 1290.65 814C1297.65 806.3 1301.15 796.617 1301.15 784.95C1301.15 777.017 1299.52 770.017 1296.25 763.95C1293.22 757.883 1288.79 753.217 1282.95 749.95C1277.35 746.45 1270.82 744.7 1263.35 744.7C1255.89 744.7 1249.24 746.45 1243.4 749.95C1237.8 753.217 1233.25 757.883 1229.75 763.95C1226.49 770.017 1224.85 777.017 1224.85 784.95C1224.85 792.65 1226.49 799.533 1229.75 805.6C1233.02 811.667 1237.57 816.45 1243.4 819.95C1249.24 823.45 1255.77 825.2 1263 825.2ZM1299.05 870V824.15L1307.1 782.85L1299.05 741.55V699.9H1351.55V870H1299.05Z" fill="#FF5247"/>
<path d="M286.528 968.704C282.816 968.704 279.531 967.915 276.672 966.336C273.856 964.757 271.637 962.581 270.016 959.808C268.437 956.992 267.648 953.792 267.648 950.208V922.816H277.76V950.784C277.76 952.576 278.144 954.133 278.912 955.456C279.68 956.779 280.725 957.803 282.048 958.528C283.413 959.211 284.907 959.552 286.528 959.552C288.235 959.552 289.728 959.211 291.008 958.528C292.288 957.803 293.291 956.8 294.016 955.52C294.784 954.197 295.168 952.64 295.168 950.848V922.816H305.28V950.272C305.28 953.856 304.491 957.035 302.912 959.808C301.333 962.581 299.136 964.757 296.32 966.336C293.504 967.915 290.24 968.704 286.528 968.704ZM332.938 968V950.272C332.938 948.651 332.426 947.349 331.402 946.368C330.42 945.344 329.162 944.832 327.626 944.832C326.559 944.832 325.62 945.067 324.81 945.536C323.999 945.963 323.359 946.603 322.89 947.456C322.42 948.267 322.186 949.205 322.186 950.272L318.41 948.416C318.41 945.984 318.943 943.851 320.01 942.016C321.076 940.181 322.548 938.773 324.426 937.792C326.346 936.768 328.5 936.256 330.89 936.256C333.194 936.256 335.22 936.811 336.97 937.92C338.762 938.987 340.17 940.416 341.194 942.208C342.218 944 342.729 945.963 342.729 948.096V968H332.938ZM312.394 968V936.896H322.186V968H312.394ZM372.534 968.768C370.699 968.768 368.886 968.533 367.094 968.064C365.345 967.595 363.702 966.933 362.166 966.08C360.673 965.184 359.393 964.16 358.326 963.008L363.894 957.376C364.918 958.485 366.134 959.36 367.542 960C368.95 960.597 370.486 960.896 372.15 960.896C373.302 960.896 374.177 960.725 374.774 960.384C375.414 960.043 375.734 959.573 375.734 958.976C375.734 958.208 375.35 957.632 374.582 957.248C373.857 956.821 372.918 956.459 371.766 956.16C370.614 955.819 369.398 955.456 368.118 955.072C366.838 954.688 365.622 954.155 364.47 953.472C363.318 952.789 362.379 951.851 361.654 950.656C360.929 949.419 360.566 947.861 360.566 945.984C360.566 943.979 361.078 942.251 362.102 940.8C363.126 939.307 364.577 938.133 366.454 937.28C368.331 936.427 370.529 936 373.046 936C375.691 936 378.123 936.469 380.342 937.408C382.603 938.304 384.438 939.648 385.846 941.44L380.278 947.072C379.297 945.92 378.187 945.109 376.95 944.64C375.755 944.171 374.582 943.936 373.43 943.936C372.321 943.936 371.489 944.107 370.934 944.448C370.379 944.747 370.102 945.195 370.102 945.792C370.102 946.432 370.465 946.944 371.19 947.328C371.915 947.712 372.854 948.053 374.006 948.352C375.158 948.651 376.374 949.013 377.654 949.44C378.934 949.867 380.15 950.443 381.302 951.168C382.454 951.893 383.393 952.875 384.118 954.112C384.843 955.307 385.206 956.885 385.206 958.848C385.206 961.877 384.054 964.288 381.75 966.08C379.489 967.872 376.417 968.768 372.534 968.768ZM390.519 968V936.896H400.311V968H390.519ZM395.447 932.608C393.911 932.608 392.631 932.096 391.607 931.072C390.625 930.005 390.135 928.725 390.135 927.232C390.135 925.696 390.625 924.416 391.607 923.392C392.631 922.368 393.911 921.856 395.447 921.856C396.983 921.856 398.241 922.368 399.223 923.392C400.204 924.416 400.695 925.696 400.695 927.232C400.695 928.725 400.204 930.005 399.223 931.072C398.241 932.096 396.983 932.608 395.447 932.608ZM418.534 968.768C416.699 968.768 414.886 968.533 413.094 968.064C411.345 967.595 409.702 966.933 408.166 966.08C406.673 965.184 405.393 964.16 404.326 963.008L409.894 957.376C410.918 958.485 412.134 959.36 413.542 960C414.95 960.597 416.486 960.896 418.15 960.896C419.302 960.896 420.177 960.725 420.774 960.384C421.414 960.043 421.734 959.573 421.734 958.976C421.734 958.208 421.35 957.632 420.582 957.248C419.857 956.821 418.918 956.459 417.766 956.16C416.614 955.819 415.398 955.456 414.118 955.072C412.838 954.688 411.622 954.155 410.47 953.472C409.318 952.789 408.379 951.851 407.654 950.656C406.929 949.419 406.566 947.861 406.566 945.984C406.566 943.979 407.078 942.251 408.102 940.8C409.126 939.307 410.577 938.133 412.454 937.28C414.331 936.427 416.529 936 419.046 936C421.691 936 424.123 936.469 426.342 937.408C428.603 938.304 430.438 939.648 431.846 941.44L426.278 947.072C425.297 945.92 424.187 945.109 422.95 944.64C421.755 944.171 420.582 943.936 419.43 943.936C418.321 943.936 417.489 944.107 416.934 944.448C416.379 944.747 416.102 945.195 416.102 945.792C416.102 946.432 416.465 946.944 417.19 947.328C417.915 947.712 418.854 948.053 420.006 948.352C421.158 948.651 422.374 949.013 423.654 949.44C424.934 949.867 426.15 950.443 427.302 951.168C428.454 951.893 429.393 952.875 430.118 954.112C430.843 955.307 431.206 956.885 431.206 958.848C431.206 961.877 430.054 964.288 427.75 966.08C425.489 967.872 422.417 968.768 418.534 968.768ZM440.935 968V924.032H450.727V968H440.935ZM433.895 945.216V936.896H457.767V945.216H433.895ZM476.816 968.704C473.445 968.704 470.437 968.021 467.792 966.656C465.189 965.248 463.141 963.307 461.648 960.832C460.155 958.357 459.408 955.563 459.408 952.448C459.408 949.333 460.133 946.56 461.584 944.128C463.077 941.653 465.083 939.712 467.6 938.304C470.117 936.896 472.955 936.192 476.112 936.192C479.184 936.192 481.893 936.853 484.24 938.176C486.587 939.499 488.421 941.333 489.744 943.68C491.109 946.027 491.792 948.715 491.792 951.744C491.792 952.299 491.749 952.896 491.664 953.536C491.621 954.133 491.515 954.837 491.344 955.648L464.528 955.712V948.992L487.184 948.928L482.96 951.744C482.917 949.952 482.64 948.48 482.128 947.328C481.616 946.133 480.848 945.237 479.824 944.64C478.843 944 477.627 943.68 476.176 943.68C474.64 943.68 473.296 944.043 472.144 944.768C471.035 945.451 470.16 946.432 469.52 947.712C468.923 948.992 468.624 950.549 468.624 952.384C468.624 954.219 468.944 955.797 469.584 957.12C470.267 958.4 471.205 959.403 472.4 960.128C473.637 960.811 475.088 961.152 476.752 961.152C478.288 961.152 479.675 960.896 480.912 960.384C482.149 959.829 483.237 959.019 484.176 957.952L489.552 963.328C488.016 965.12 486.16 966.464 483.984 967.36C481.808 968.256 479.419 968.704 476.816 968.704ZM496.519 968V936.896H506.311V968H496.519ZM516.423 968V949.824C516.423 948.245 515.932 947.029 514.951 946.176C514.012 945.28 512.839 944.832 511.431 944.832C510.449 944.832 509.575 945.045 508.807 945.472C508.039 945.856 507.42 946.411 506.951 947.136C506.524 947.861 506.311 948.757 506.311 949.824L502.535 948.16C502.535 945.685 503.068 943.573 504.135 941.824C505.201 940.032 506.652 938.667 508.487 937.728C510.321 936.747 512.391 936.256 514.695 936.256C516.871 936.256 518.812 936.747 520.519 937.728C522.268 938.709 523.655 940.075 524.679 941.824C525.703 943.573 526.215 945.664 526.215 948.096V968H516.423ZM536.327 968V949.824C536.327 948.245 535.836 947.029 534.855 946.176C533.916 945.28 532.743 944.832 531.335 944.832C530.353 944.832 529.479 945.045 528.711 945.472C527.943 945.856 527.324 946.411 526.854 947.136C526.428 947.861 526.215 948.757 526.215 949.824L520.583 949.056C520.668 946.411 521.287 944.149 522.439 942.272C523.633 940.352 525.191 938.88 527.111 937.856C529.073 936.789 531.271 936.256 533.703 936.256C536.092 936.256 538.204 936.768 540.039 937.792C541.916 938.773 543.388 940.203 544.455 942.08C545.564 943.915 546.119 946.133 546.119 948.736V968H536.327ZM565.385 968.64C562.527 968.64 559.967 967.936 557.706 966.528C555.487 965.12 553.716 963.2 552.394 960.768C551.114 958.336 550.474 955.563 550.474 952.448C550.474 949.333 551.114 946.56 552.394 944.128C553.716 941.696 555.487 939.776 557.706 938.368C559.967 936.96 562.527 936.256 565.385 936.256C567.476 936.256 569.354 936.661 571.018 937.472C572.724 938.283 574.111 939.413 575.178 940.864C576.244 942.272 576.842 943.893 576.97 945.728V959.168C576.842 961.003 576.244 962.645 575.178 964.096C574.154 965.504 572.788 966.613 571.082 967.424C569.375 968.235 567.476 968.64 565.385 968.64ZM567.37 959.808C569.46 959.808 571.146 959.125 572.426 957.76C573.706 956.352 574.346 954.581 574.346 952.448C574.346 950.997 574.047 949.717 573.45 948.608C572.895 947.499 572.084 946.645 571.018 946.048C569.994 945.408 568.799 945.088 567.434 945.088C566.068 945.088 564.852 945.408 563.786 946.048C562.762 946.645 561.93 947.499 561.29 948.608C560.692 949.717 560.394 950.997 560.394 952.448C560.394 953.856 560.692 955.115 561.29 956.224C561.887 957.333 562.719 958.208 563.786 958.848C564.852 959.488 566.047 959.808 567.37 959.808ZM573.962 968V959.616L575.434 952.064L573.962 944.512V936.896H583.562V968H573.962ZM590.456 975.68L595.128 966.976L598.008 966.144C597.709 966.784 597.347 967.317 596.92 967.744C596.493 968.128 596.003 968.32 595.448 968.32C594.211 968.32 593.08 967.808 592.056 966.784C591.032 965.76 590.52 964.48 590.52 962.944C590.52 961.28 591.075 959.851 592.184 958.656C593.336 957.461 594.744 956.864 596.408 956.864C597.987 956.864 599.352 957.461 600.504 958.656C601.699 959.808 602.296 961.237 602.296 962.944C602.296 963.627 602.168 964.416 601.912 965.312C601.656 966.208 601.144 967.381 600.376 968.832L595.192 978.304L590.456 975.68ZM634.593 968.704C631.734 968.704 629.195 968.128 626.977 966.976C624.801 965.781 623.094 964.16 621.857 962.112C620.619 960.021 620.001 957.632 620.001 954.944V936.896H629.793V954.816C629.793 955.883 629.963 956.8 630.305 957.568C630.689 958.336 631.243 958.933 631.969 959.36C632.694 959.787 633.569 960 634.593 960C636.043 960 637.195 959.552 638.049 958.656C638.902 957.717 639.329 956.437 639.329 954.816V936.896H649.121V954.88C649.121 957.611 648.502 960.021 647.265 962.112C646.027 964.16 644.321 965.781 642.145 966.976C639.969 968.128 637.451 968.704 634.593 968.704ZM675.813 968V950.272C675.813 948.651 675.301 947.349 674.277 946.368C673.295 945.344 672.037 944.832 670.501 944.832C669.434 944.832 668.495 945.067 667.685 945.536C666.874 945.963 666.234 946.603 665.765 947.456C665.295 948.267 665.061 949.205 665.061 950.272L661.285 948.416C661.285 945.984 661.818 943.851 662.885 942.016C663.951 940.181 665.423 938.773 667.301 937.792C669.221 936.768 671.375 936.256 673.765 936.256C676.069 936.256 678.095 936.811 679.845 937.92C681.637 938.987 683.045 940.416 684.069 942.208C685.093 944 685.604 945.963 685.604 948.096V968H675.813ZM655.269 968V936.896H665.061V968H655.269ZM704.885 968.64C702.027 968.64 699.467 967.936 697.206 966.528C694.987 965.12 693.216 963.2 691.894 960.768C690.614 958.336 689.974 955.563 689.974 952.448C689.974 949.333 690.614 946.56 691.894 944.128C693.216 941.696 694.987 939.776 697.206 938.368C699.467 936.96 702.027 936.256 704.885 936.256C706.976 936.256 708.854 936.661 710.518 937.472C712.224 938.283 713.611 939.413 714.678 940.864C715.744 942.272 716.342 943.893 716.47 945.728V959.168C716.342 961.003 715.744 962.645 714.678 964.096C713.654 965.504 712.288 966.613 710.582 967.424C708.875 968.235 706.976 968.64 704.885 968.64ZM706.87 959.808C708.96 959.808 710.646 959.125 711.926 957.76C713.206 956.352 713.846 954.581 713.846 952.448C713.846 950.997 713.547 949.717 712.95 948.608C712.395 947.499 711.584 946.645 710.518 946.048C709.494 945.408 708.299 945.088 706.934 945.088C705.568 945.088 704.352 945.408 703.286 946.048C702.262 946.645 701.43 947.499 700.79 948.608C700.192 949.717 699.894 950.997 699.894 952.448C699.894 953.856 700.192 955.115 700.79 956.224C701.387 957.333 702.219 958.208 703.286 958.848C704.352 959.488 705.547 959.808 706.87 959.808ZM713.462 968V959.616L714.934 952.064L713.462 944.512V936.896H723.062V968H713.462ZM751.936 968L738.752 936.896H749.312L758.272 962.816H753.664L762.624 936.896H772.992L759.808 967.936L751.936 968ZM776.519 968V936.896H786.311V968H776.519ZM781.447 932.608C779.911 932.608 778.631 932.096 777.607 931.072C776.625 930.005 776.135 928.725 776.135 927.232C776.135 925.696 776.625 924.416 777.607 923.392C778.631 922.368 779.911 921.856 781.447 921.856C782.983 921.856 784.241 922.368 785.223 923.392C786.204 924.416 786.695 925.696 786.695 927.232C786.695 928.725 786.204 930.005 785.223 931.072C784.241 932.096 782.983 932.608 781.447 932.608ZM804.534 968.768C802.699 968.768 800.886 968.533 799.094 968.064C797.345 967.595 795.702 966.933 794.166 966.08C792.673 965.184 791.393 964.16 790.326 963.008L795.894 957.376C796.918 958.485 798.134 959.36 799.542 960C800.95 960.597 802.486 960.896 804.15 960.896C805.302 960.896 806.177 960.725 806.774 960.384C807.414 960.043 807.734 959.573 807.734 958.976C807.734 958.208 807.35 957.632 806.582 957.248C805.857 956.821 804.918 956.459 803.766 956.16C802.614 955.819 801.398 955.456 800.118 955.072C798.838 954.688 797.622 954.155 796.47 953.472C795.318 952.789 794.379 951.851 793.654 950.656C792.929 949.419 792.566 947.861 792.566 945.984C792.566 943.979 793.078 942.251 794.102 940.8C795.126 939.307 796.577 938.133 798.454 937.28C800.331 936.427 802.529 936 805.046 936C807.691 936 810.123 936.469 812.342 937.408C814.603 938.304 816.438 939.648 817.846 941.44L812.278 947.072C811.297 945.92 810.187 945.109 808.95 944.64C807.755 944.171 806.582 943.936 805.43 943.936C804.321 943.936 803.489 944.107 802.934 944.448C802.379 944.747 802.102 945.195 802.102 945.792C802.102 946.432 802.465 946.944 803.19 947.328C803.915 947.712 804.854 948.053 806.006 948.352C807.158 948.651 808.374 949.013 809.654 949.44C810.934 949.867 812.15 950.443 813.302 951.168C814.454 951.893 815.393 952.875 816.118 954.112C816.843 955.307 817.206 956.885 817.206 958.848C817.206 961.877 816.054 964.288 813.75 966.08C811.489 967.872 808.417 968.768 804.534 968.768ZM822.519 968V936.896H832.311V968H822.519ZM827.447 932.608C825.911 932.608 824.631 932.096 823.607 931.072C822.625 930.005 822.135 928.725 822.135 927.232C822.135 925.696 822.625 924.416 823.607 923.392C824.631 922.368 825.911 921.856 827.447 921.856C828.983 921.856 830.241 922.368 831.223 923.392C832.204 924.416 832.695 925.696 832.695 927.232C832.695 928.725 832.204 930.005 831.223 931.072C830.241 932.096 828.983 932.608 827.447 932.608ZM854.182 968.704C850.982 968.704 848.081 968 845.478 966.592C842.918 965.141 840.891 963.179 839.398 960.704C837.905 958.229 837.158 955.456 837.158 952.384C837.158 949.312 837.905 946.56 839.398 944.128C840.891 941.696 842.918 939.776 845.478 938.368C848.038 936.917 850.939 936.192 854.182 936.192C857.425 936.192 860.326 936.896 862.886 938.304C865.446 939.712 867.473 941.653 868.966 944.128C870.459 946.56 871.206 949.312 871.206 952.384C871.206 955.456 870.459 958.229 868.966 960.704C867.473 963.179 865.446 965.141 862.886 966.592C860.326 968 857.425 968.704 854.182 968.704ZM854.182 959.808C855.59 959.808 856.827 959.509 857.894 958.912C858.961 958.272 859.771 957.397 860.326 956.288C860.923 955.136 861.222 953.835 861.222 952.384C861.222 950.933 860.923 949.675 860.326 948.608C859.729 947.499 858.897 946.645 857.83 946.048C856.806 945.408 855.59 945.088 854.182 945.088C852.817 945.088 851.601 945.408 850.534 946.048C849.467 946.645 848.635 947.499 848.038 948.608C847.441 949.717 847.142 950.997 847.142 952.448C847.142 953.856 847.441 955.136 848.038 956.288C848.635 957.397 849.467 958.272 850.534 958.912C851.601 959.509 852.817 959.808 854.182 959.808ZM849.574 933.376L846.374 928.704L856.55 919.168L861.926 926.72L849.574 933.376ZM896.625 968V950.272C896.625 948.651 896.113 947.349 895.089 946.368C894.108 945.344 892.849 944.832 891.313 944.832C890.246 944.832 889.308 945.067 888.497 945.536C887.686 945.963 887.046 946.603 886.577 947.456C886.108 948.267 885.873 949.205 885.873 950.272L882.097 948.416C882.097 945.984 882.63 943.851 883.697 942.016C884.764 940.181 886.236 938.773 888.113 937.792C890.033 936.768 892.188 936.256 894.577 936.256C896.881 936.256 898.908 936.811 900.657 937.92C902.449 938.987 903.857 940.416 904.881 942.208C905.905 944 906.417 945.963 906.417 948.096V968H896.625ZM876.081 968V936.896H885.873V968H876.081ZM912.706 975.68L917.378 966.976L920.258 966.144C919.959 966.784 919.597 967.317 919.17 967.744C918.743 968.128 918.253 968.32 917.698 968.32C916.461 968.32 915.33 967.808 914.306 966.784C913.282 965.76 912.77 964.48 912.77 962.944C912.77 961.28 913.325 959.851 914.434 958.656C915.586 957.461 916.994 956.864 918.658 956.864C920.237 956.864 921.602 957.461 922.754 958.656C923.949 959.808 924.546 961.237 924.546 962.944C924.546 963.627 924.418 964.416 924.162 965.312C923.906 966.208 923.394 967.381 922.626 968.832L917.442 978.304L912.706 975.68ZM956.843 968.704C953.984 968.704 951.445 968.128 949.227 966.976C947.051 965.781 945.344 964.16 944.107 962.112C942.869 960.021 942.251 957.632 942.251 954.944V936.896H952.043V954.816C952.043 955.883 952.213 956.8 952.555 957.568C952.939 958.336 953.493 958.933 954.219 959.36C954.944 959.787 955.819 960 956.843 960C958.293 960 959.445 959.552 960.299 958.656C961.152 957.717 961.579 956.437 961.579 954.816V936.896H971.371V954.88C971.371 957.611 970.752 960.021 969.515 962.112C968.277 964.16 966.571 965.781 964.395 966.976C962.219 968.128 959.701 968.704 956.843 968.704ZM998.063 968V950.272C998.063 948.651 997.551 947.349 996.527 946.368C995.545 945.344 994.287 944.832 992.751 944.832C991.684 944.832 990.745 945.067 989.935 945.536C989.124 945.963 988.484 946.603 988.015 947.456C987.545 948.267 987.311 949.205 987.311 950.272L983.535 948.416C983.535 945.984 984.068 943.851 985.135 942.016C986.201 940.181 987.673 938.773 989.551 937.792C991.471 936.768 993.625 936.256 996.015 936.256C998.319 936.256 1000.35 936.811 1002.09 937.92C1003.89 938.987 1005.29 940.416 1006.32 942.208C1007.34 944 1007.85 945.963 1007.85 948.096V968H998.063ZM977.519 968V936.896H987.311V968H977.519ZM1027.14 968.64C1024.28 968.64 1021.72 967.936 1019.46 966.528C1017.24 965.12 1015.47 963.2 1014.14 960.768C1012.86 958.336 1012.22 955.563 1012.22 952.448C1012.22 949.333 1012.86 946.56 1014.14 944.128C1015.47 941.696 1017.24 939.776 1019.46 938.368C1021.72 936.96 1024.28 936.256 1027.14 936.256C1029.23 936.256 1031.1 936.661 1032.77 937.472C1034.47 938.283 1035.86 939.413 1036.93 940.864C1037.99 942.272 1038.59 943.893 1038.72 945.728V959.168C1038.59 961.003 1037.99 962.645 1036.93 964.096C1035.9 965.504 1034.54 966.613 1032.83 967.424C1031.12 968.235 1029.23 968.64 1027.14 968.64ZM1029.12 959.808C1031.21 959.808 1032.9 959.125 1034.18 957.76C1035.46 956.352 1036.1 954.581 1036.1 952.448C1036.1 950.997 1035.8 949.717 1035.2 948.608C1034.64 947.499 1033.83 946.645 1032.77 946.048C1031.74 945.408 1030.55 945.088 1029.18 945.088C1027.82 945.088 1026.6 945.408 1025.54 946.048C1024.51 946.645 1023.68 947.499 1023.04 948.608C1022.44 949.717 1022.14 950.997 1022.14 952.448C1022.14 953.856 1022.44 955.115 1023.04 956.224C1023.64 957.333 1024.47 958.208 1025.54 958.848C1026.6 959.488 1027.8 959.808 1029.12 959.808ZM1035.71 968V959.616L1037.18 952.064L1035.71 944.512V936.896H1045.31V968H1035.71ZM1064.39 968V936.896H1074.19V968H1064.39ZM1069.32 932.608C1067.79 932.608 1066.51 932.096 1065.48 931.072C1064.5 930.005 1064.01 928.725 1064.01 927.232C1064.01 925.696 1064.5 924.416 1065.48 923.392C1066.51 922.368 1067.79 921.856 1069.32 921.856C1070.86 921.856 1072.12 922.368 1073.1 923.392C1074.08 924.416 1074.57 925.696 1074.57 927.232C1074.57 928.725 1074.08 930.005 1073.1 931.072C1072.12 932.096 1070.86 932.608 1069.32 932.608ZM1101.63 968V950.272C1101.63 948.651 1101.11 947.349 1100.09 946.368C1099.11 945.344 1097.85 944.832 1096.31 944.832C1095.25 944.832 1094.31 945.067 1093.5 945.536C1092.69 945.963 1092.05 946.603 1091.58 947.456C1091.11 948.267 1090.87 949.205 1090.87 950.272L1087.1 948.416C1087.1 945.984 1087.63 943.851 1088.7 942.016C1089.76 940.181 1091.24 938.773 1093.11 937.792C1095.03 936.768 1097.19 936.256 1099.58 936.256C1101.88 936.256 1103.91 936.811 1105.66 937.92C1107.45 938.987 1108.86 940.416 1109.88 942.208C1110.91 944 1111.42 945.963 1111.42 948.096V968H1101.63ZM1081.08 968V936.896H1090.87V968H1081.08ZM1138.25 968V950.272C1138.25 948.651 1137.74 947.349 1136.71 946.368C1135.73 945.344 1134.47 944.832 1132.94 944.832C1131.87 944.832 1130.93 945.067 1130.12 945.536C1129.31 945.963 1128.67 946.603 1128.2 947.456C1127.73 948.267 1127.5 949.205 1127.5 950.272L1123.72 948.416C1123.72 945.984 1124.26 943.851 1125.32 942.016C1126.39 940.181 1127.86 938.773 1129.74 937.792C1131.66 936.768 1133.81 936.256 1136.2 936.256C1138.51 936.256 1140.53 936.811 1142.28 937.92C1144.07 938.987 1145.48 940.416 1146.51 942.208C1147.53 944 1148.04 945.963 1148.04 948.096V968H1138.25ZM1117.71 968V936.896H1127.5V968H1117.71ZM1169.31 968.704C1166.11 968.704 1163.21 968 1160.6 966.592C1158.04 965.141 1156.02 963.179 1154.52 960.704C1153.03 958.229 1152.28 955.456 1152.28 952.384C1152.28 949.312 1153.03 946.56 1154.52 944.128C1156.02 941.696 1158.04 939.776 1160.6 938.368C1163.16 936.917 1166.06 936.192 1169.31 936.192C1172.55 936.192 1175.45 936.896 1178.01 938.304C1180.57 939.712 1182.6 941.653 1184.09 944.128C1185.58 946.56 1186.33 949.312 1186.33 952.384C1186.33 955.456 1185.58 958.229 1184.09 960.704C1182.6 963.179 1180.57 965.141 1178.01 966.592C1175.45 968 1172.55 968.704 1169.31 968.704ZM1169.31 959.808C1170.72 959.808 1171.95 959.509 1173.02 958.912C1174.09 958.272 1174.9 957.397 1175.45 956.288C1176.05 955.136 1176.35 953.835 1176.35 952.384C1176.35 950.933 1176.05 949.675 1175.45 948.608C1174.85 947.499 1174.02 946.645 1172.96 946.048C1171.93 945.408 1170.72 945.088 1169.31 945.088C1167.94 945.088 1166.73 945.408 1165.66 946.048C1164.59 946.645 1163.76 947.499 1163.16 948.608C1162.57 949.717 1162.27 950.997 1162.27 952.448C1162.27 953.856 1162.57 955.136 1163.16 956.288C1163.76 957.397 1164.59 958.272 1165.66 958.912C1166.73 959.509 1167.94 959.808 1169.31 959.808ZM1200.12 968L1186.94 936.896H1197.5L1206.46 962.816H1201.85L1210.81 936.896H1221.18L1208 967.936L1200.12 968ZM1236.82 968.64C1233.96 968.64 1231.4 967.936 1229.14 966.528C1226.92 965.12 1225.15 963.2 1223.83 960.768C1222.55 958.336 1221.91 955.563 1221.91 952.448C1221.91 949.333 1222.55 946.56 1223.83 944.128C1225.15 941.696 1226.92 939.776 1229.14 938.368C1231.4 936.96 1233.96 936.256 1236.82 936.256C1238.91 936.256 1240.79 936.661 1242.46 937.472C1244.16 938.283 1245.55 939.413 1246.62 940.864C1247.68 942.272 1248.28 943.893 1248.41 945.728V959.168C1248.28 961.003 1247.68 962.645 1246.62 964.096C1245.59 965.504 1244.23 966.613 1242.52 967.424C1240.81 968.235 1238.91 968.64 1236.82 968.64ZM1238.81 959.808C1240.9 959.808 1242.58 959.125 1243.86 957.76C1245.14 956.352 1245.78 954.581 1245.78 952.448C1245.78 950.997 1245.48 949.717 1244.89 948.608C1244.33 947.499 1243.52 946.645 1242.46 946.048C1241.43 945.408 1240.24 945.088 1238.87 945.088C1237.51 945.088 1236.29 945.408 1235.22 946.048C1234.2 946.645 1233.37 947.499 1232.73 948.608C1232.13 949.717 1231.83 950.997 1231.83 952.448C1231.83 953.856 1232.13 955.115 1232.73 956.224C1233.32 957.333 1234.16 958.208 1235.22 958.848C1236.29 959.488 1237.48 959.808 1238.81 959.808ZM1245.4 968V959.616L1246.87 952.064L1245.4 944.512V936.896H1255V968H1245.4ZM1276.93 968.704C1273.73 968.704 1270.83 968 1268.23 966.592C1265.63 965.184 1263.58 963.243 1262.09 960.768C1260.59 958.293 1259.85 955.52 1259.85 952.448C1259.85 949.333 1260.59 946.56 1262.09 944.128C1263.62 941.653 1265.69 939.712 1268.29 938.304C1270.9 936.896 1273.82 936.192 1277.06 936.192C1279.49 936.192 1281.71 936.619 1283.72 937.472C1285.77 938.283 1287.58 939.52 1289.16 941.184L1282.89 947.456C1282.16 946.645 1281.31 946.048 1280.33 945.664C1279.39 945.28 1278.3 945.088 1277.06 945.088C1275.65 945.088 1274.39 945.408 1273.29 946.048C1272.22 946.645 1271.37 947.499 1270.73 948.608C1270.13 949.675 1269.83 950.933 1269.83 952.384C1269.83 953.835 1270.13 955.115 1270.73 956.224C1271.37 957.333 1272.24 958.208 1273.35 958.848C1274.46 959.488 1275.7 959.808 1277.06 959.808C1278.34 959.808 1279.47 959.595 1280.45 959.168C1281.48 958.699 1282.35 958.059 1283.08 957.248L1289.29 963.52C1287.66 965.227 1285.83 966.528 1283.78 967.424C1281.73 968.277 1279.45 968.704 1276.93 968.704ZM1293.64 968V936.896H1303.44V968H1293.64ZM1298.57 932.608C1297.04 932.608 1295.76 932.096 1294.73 931.072C1293.75 930.005 1293.26 928.725 1293.26 927.232C1293.26 925.696 1293.75 924.416 1294.73 923.392C1295.76 922.368 1297.04 921.856 1298.57 921.856C1300.11 921.856 1301.37 922.368 1302.35 923.392C1303.33 924.416 1303.82 925.696 1303.82 927.232C1303.82 928.725 1303.33 930.005 1302.35 931.072C1301.37 932.096 1300.11 932.608 1298.57 932.608ZM1325.31 968.704C1322.11 968.704 1319.21 968 1316.6 966.592C1314.04 965.141 1312.02 963.179 1310.52 960.704C1309.03 958.229 1308.28 955.456 1308.28 952.384C1308.28 949.312 1309.03 946.56 1310.52 944.128C1312.02 941.696 1314.04 939.776 1316.6 938.368C1319.16 936.917 1322.06 936.192 1325.31 936.192C1328.55 936.192 1331.45 936.896 1334.01 938.304C1336.57 939.712 1338.6 941.653 1340.09 944.128C1341.58 946.56 1342.33 949.312 1342.33 952.384C1342.33 955.456 1341.58 958.229 1340.09 960.704C1338.6 963.179 1336.57 965.141 1334.01 966.592C1331.45 968 1328.55 968.704 1325.31 968.704ZM1325.31 959.808C1326.72 959.808 1327.95 959.509 1329.02 958.912C1330.09 958.272 1330.9 957.397 1331.45 956.288C1332.05 955.136 1332.35 953.835 1332.35 952.384C1332.35 950.933 1332.05 949.675 1331.45 948.608C1330.85 947.499 1330.02 946.645 1328.96 946.048C1327.93 945.408 1326.72 945.088 1325.31 945.088C1323.94 945.088 1322.73 945.408 1321.66 946.048C1320.59 946.645 1319.76 947.499 1319.16 948.608C1318.57 949.717 1318.27 950.997 1318.27 952.448C1318.27 953.856 1318.57 955.136 1319.16 956.288C1319.76 957.397 1320.59 958.272 1321.66 958.912C1322.73 959.509 1323.94 959.808 1325.31 959.808ZM1320.7 933.376L1317.5 928.704L1327.68 919.168L1333.05 926.72L1320.7 933.376ZM1367.75 968V950.272C1367.75 948.651 1367.24 947.349 1366.21 946.368C1365.23 945.344 1363.97 944.832 1362.44 944.832C1361.37 944.832 1360.43 945.067 1359.62 945.536C1358.81 945.963 1358.17 946.603 1357.7 947.456C1357.23 948.267 1357 949.205 1357 950.272L1353.22 948.416C1353.22 945.984 1353.76 943.851 1354.82 942.016C1355.89 940.181 1357.36 938.773 1359.24 937.792C1361.16 936.768 1363.31 936.256 1365.7 936.256C1368.01 936.256 1370.03 936.811 1371.78 937.92C1373.57 938.987 1374.98 940.416 1376.01 942.208C1377.03 944 1377.54 945.963 1377.54 948.096V968H1367.75ZM1347.21 968V936.896H1357V968H1347.21Z" fill="white"/>
<path d="M302.8 870V622.9H357.75V870H302.8ZM512.789 870V773.05C512.789 764.183 509.989 757.067 504.389 751.7C499.022 746.1 492.139 743.3 483.739 743.3C477.906 743.3 472.772 744.583 468.339 747.15C463.906 749.483 460.406 752.983 457.839 757.65C455.272 762.083 453.989 767.217 453.989 773.05L433.339 762.9C433.339 749.6 436.256 737.933 442.089 727.9C447.922 717.867 455.972 710.167 466.239 704.8C476.739 699.2 488.522 696.4 501.589 696.4C514.189 696.4 525.272 699.433 534.839 705.5C544.639 711.333 552.339 719.15 557.939 728.95C563.539 738.75 566.339 749.483 566.339 761.15V870H512.789ZM400.439 870V699.9H453.989V870H400.439ZM713.082 870V773.05C713.082 764.183 710.282 757.067 704.682 751.7C699.315 746.1 692.432 743.3 684.032 743.3C678.199 743.3 673.065 744.583 668.632 747.15C664.199 749.483 660.699 752.983 658.132 757.65C655.565 762.083 654.282 767.217 654.282 773.05L633.632 762.9C633.632 749.6 636.549 737.933 642.382 727.9C648.215 717.867 656.265 710.167 666.532 704.8C677.032 699.2 688.815 696.4 701.882 696.4C714.482 696.4 725.565 699.433 735.132 705.5C744.932 711.333 752.632 719.15 758.232 728.95C763.832 738.75 766.632 749.483 766.632 761.15V870H713.082ZM600.732 870V699.9H654.282V870H600.732ZM882.925 873.85C865.425 873.85 849.558 870 835.325 862.3C821.325 854.367 810.242 843.633 802.075 830.1C793.908 816.567 789.825 801.4 789.825 784.6C789.825 767.8 793.908 752.75 802.075 739.45C810.242 726.15 821.325 715.65 835.325 707.95C849.325 700.017 865.192 696.05 882.925 696.05C900.658 696.05 916.525 699.9 930.525 707.6C944.525 715.3 955.608 725.917 963.775 739.45C971.942 752.75 976.025 767.8 976.025 784.6C976.025 801.4 971.942 816.567 963.775 830.1C955.608 843.633 944.525 854.367 930.525 862.3C916.525 870 900.658 873.85 882.925 873.85ZM882.925 825.2C890.625 825.2 897.392 823.567 903.225 820.3C909.058 816.8 913.492 812.017 916.525 805.95C919.792 799.65 921.425 792.533 921.425 784.6C921.425 776.667 919.792 769.783 916.525 763.95C913.258 757.883 908.708 753.217 902.875 749.95C897.275 746.45 890.625 744.7 882.925 744.7C875.458 744.7 868.808 746.45 862.975 749.95C857.142 753.217 852.592 757.883 849.325 763.95C846.058 770.017 844.425 777.017 844.425 784.95C844.425 792.65 846.058 799.65 849.325 805.95C852.592 812.017 857.142 816.8 862.975 820.3C868.808 823.567 875.458 825.2 882.925 825.2ZM1051.45 870L979.35 699.9H1037.1L1086.1 841.65H1060.9L1109.9 699.9H1166.6L1094.5 869.65L1051.45 870ZM1252.15 873.5C1236.52 873.5 1222.52 869.65 1210.15 861.95C1198.02 854.25 1188.34 843.75 1181.1 830.45C1174.1 817.15 1170.6 801.983 1170.6 784.95C1170.6 767.917 1174.1 752.75 1181.1 739.45C1188.34 726.15 1198.02 715.65 1210.15 707.95C1222.52 700.25 1236.52 696.4 1252.15 696.4C1263.59 696.4 1273.85 698.617 1282.95 703.05C1292.29 707.483 1299.87 713.667 1305.7 721.6C1311.54 729.3 1314.8 738.167 1315.5 748.2V821.7C1314.8 831.733 1311.54 840.717 1305.7 848.65C1300.1 856.35 1292.64 862.417 1283.3 866.85C1273.97 871.283 1263.59 873.5 1252.15 873.5ZM1263 825.2C1274.44 825.2 1283.65 821.467 1290.65 814C1297.65 806.3 1301.15 796.617 1301.15 784.95C1301.15 777.017 1299.52 770.017 1296.25 763.95C1293.22 757.883 1288.79 753.217 1282.95 749.95C1277.35 746.45 1270.82 744.7 1263.35 744.7C1255.89 744.7 1249.24 746.45 1243.4 749.95C1237.8 753.217 1233.25 757.883 1229.75 763.95C1226.49 770.017 1224.85 777.017 1224.85 784.95C1224.85 792.65 1226.49 799.533 1229.75 805.6C1233.02 811.667 1237.57 816.45 1243.4 819.95C1249.24 823.45 1255.77 825.2 1263 825.2ZM1299.05 870V824.15L1307.1 782.85L1299.05 741.55V699.9H1351.55V870H1299.05Z" fill="#FF5247"/>
</svg>
